<svg xmlns="http://www.w3.org/2000/svg" width="61.05" height="59.84" viewBox="0 0 61.05 59.84"><path d="M52.1,0c3.07,2.87,2,5-.8,7.56-5.19,4.66-10,9.76-15,14.63C32.4,26,28.91,26,25,22.19c-1.8-1.71-3.51-3.63-5.43-5.27s-2.2-3-.21-5,3.38-1.29,5.06.38c7,7,5.3,7.06,12.65-.18,4-4,8-8.1,11.95-12.16Z" transform="translate(0 0.04)" fill="#6760ab"/><path d="M9.2,59.8c-3-2.86-2.07-5,.79-7.54,5.18-4.64,9.94-9.74,14.93-14.59,4-3.91,7.49-3.87,11.57.06,1.91,1.85,3.72,3.8,5.7,5.58,1.76,1.59,1.46,2.82-.1,4.38s-3.07,2.18-4.73.18a1.72,1.72,0,0,0-.27-.27c-6.61-6.16-6.63-6.18-13.16.33C20,51.85,16.15,55.84,12.26,59.8Z" transform="translate(0 0.04)" fill="#362e79"/><path d="M0,9.08C4.38,6,4.38,6,8.46,10.08c4.7,4.63,9.4,9.25,14.07,13.91,4.25,4.25,4.21,7.67-.1,12-1.7,1.7-3.51,3.32-5.13,5.09s-3,1.7-4.77,0-1.63-3,.06-4.7c6.4-6.62,6.37-6.7-.28-13.21-4.06-4-8.2-7.85-12.31-11.78Z" transform="translate(0 0.04)" fill="#4a428e"/><path d="M35.83,30.13A6.79,6.79,0,0,1,38,24.82c1.89-1.88,3.85-3.68,5.64-5.63s3.19-2.44,5.34-.3,1,3.33-.56,4.91C42.21,30,42.24,30,48.54,36.2c3.69,3.64,7.32,7.34,11.09,10.9,1.72,1.64,2,2.93.14,4.68s-3.13,1.73-4.85,0C49.3,46.13,43.56,40.56,37.94,35A6.27,6.27,0,0,1,35.83,30.13Z" transform="translate(0 0.04)" fill="#847cc7"/><path d="M30.63,2.86c2.83.27,4.55,1.73,4.53,4.55a4.17,4.17,0,0,1-3.94,4.37h-.34a4.19,4.19,0,0,1-4.67-3.67,3.76,3.76,0,0,1,0-.67C26.09,4.64,27.86,3.16,30.63,2.86Z" transform="translate(0 0.04)" fill="#6760ab"/><path d="M35.27,52.73c-.63,2.8-2.19,4.4-5.06,4.12a4.07,4.07,0,0,1-4-4.11,3.25,3.25,0,0,1,0-.44A4.19,4.19,0,0,1,30.3,48a5.17,5.17,0,0,1,.68,0C33.74,48.22,35.1,50.1,35.27,52.73Z" transform="translate(0 0.04)" fill="#362e79"/><path d="M12.38,30.09c-.43,2.73-2,4.32-4.84,4.21a4.12,4.12,0,0,1-4.25-4c0-.13,0-.27,0-.4a4.15,4.15,0,0,1,3.83-4.43,4.79,4.79,0,0,1,.76,0C10.71,25.56,12.18,27.28,12.38,30.09Z" transform="translate(0 0.04)" fill="#4f4792"/><path d="M53.29,34.25c-2.6-.33-4.37-1.77-4.21-4.61.16-2.61,1.87-4.07,4.55-4A4,4,0,0,1,58,30.2C57.88,32.68,56.2,34.19,53.29,34.25Z" transform="translate(0 0.04)" fill="#847cc7"/></svg>