<svg xmlns="http://www.w3.org/2000/svg" viewBox="0 0 224.48 59.8"><path d="M228.92,47.34a21.61,21.61,0,0,0-2.67,0c-2.39.3-3.37-.52-3.52-3.05a73,73,0,0,0-2.12-13.18c-1.21,4.44-2.5,8.85-3.59,13.31-.49,2-1.23,3-3.54,3s-3.08-1-3.57-2.94a76.54,76.54,0,0,0-4.26-12.77c-.45,4.2-1,8.39-1.3,12.6-.15,2.52-1.29,3.1-3.63,3.08-2.19,0-2.54-.9-2.29-2.77q1.48-11.22,2.8-22.46c.19-1.58.16-3,2.45-2.92,2,.06,3.61-.05,4.28,2.51,1.57,5.9,3.46,11.72,5.53,18.6,2-6.53,3.83-12.07,5.36-17.7.65-2.43,1.55-3.6,4.34-3.44,3.12.17,2.37,2.32,2.68,4,1.23,6.74.89,13.7,3,20.31Z" transform="translate(-4.44 -3.44)" fill="#847cc7"/><path d="M56.54,3.44c3.07,2.87,2.05,5-.8,7.56-5.19,4.66-10,9.76-15,14.63-3.9,3.8-7.39,3.79-11.31,0C27.63,23.92,25.92,22,24,20.36s-2.2-3-.21-5,3.38-1.29,5.06.38c7,7,5.3,7.06,12.65-.18,4-4,8-8.1,11.95-12.16Z" transform="translate(-4.44 -3.44)" fill="#6760ab"/><path d="M13.64,63.24c-3-2.86-2.07-5,.79-7.54,5.18-4.64,9.94-9.74,14.93-14.59,4-3.91,7.49-3.87,11.57.06,1.91,1.85,3.72,3.8,5.7,5.58,1.76,1.59,1.46,2.82-.1,4.38s-3.07,2.18-4.73.18a2.29,2.29,0,0,0-.27-.27c-6.61-6.16-6.63-6.18-13.16.33-3.93,3.92-7.78,7.91-11.67,11.87Z" transform="translate(-4.44 -3.44)" fill="#362e79"/><path d="M4.44,12.52c4.38-3.07,4.38-3.07,8.46,1,4.7,4.63,9.4,9.25,14.07,13.91,4.25,4.25,4.21,7.67-.1,12-1.7,1.7-3.51,3.32-5.13,5.09s-3,1.7-4.77,0-1.63-3,.06-4.7c6.4-6.62,6.37-6.7-.28-13.21-4.06-4-8.2-7.85-12.31-11.78Z" transform="translate(-4.44 -3.44)" fill="#4a428e"/><path d="M186.92,31.05c-1.26,4.55-2.63,9.07-3.71,13.67-.46,2-1.23,2.64-3.3,2.69s-3.19-.66-3.7-2.74A79.93,79.93,0,0,0,172,31.54c-.46,4.27-1,8.53-1.36,12.81-.17,2.13-.84,3-3.23,3.07-2.59,0-2.93-.93-2.62-3.15,1-7.35,1.89-14.73,2.76-22.11.19-1.56.1-3,2.43-2.92,1.95.09,3.6-.15,4.29,2.47,1.55,5.95,3.48,11.8,5.55,18.68,2-6.56,3.84-12.23,5.4-18,.62-2.31,1.56-3.34,4.13-3.21,2,.11,2.57.94,2.76,2.72q1.26,11.45,2.68,22.88c.17,1.33.6,2.71-1.49,2.49-1.54-.15-3.79,1.08-4.1-1.89-.51-4.76-1.11-9.5-1.68-14.24Z" transform="translate(-4.44 -3.44)" fill="#6760ab"/><path d="M76.46,33.09c0-3.77.06-7.55,0-11.33,0-1.63.18-2.6,2.21-2.52,3.57.15,7.15,0,10.7.13,4.2.22,6.55,2.44,7,6.56a27,27,0,0,1,0,6c-.6,5.06-4,7.8-9.44,6.74-4.45-.86-4.76.86-4.61,4.33.06,1.43,1.61,4-1.81,4.33-2.9.3-4.49-.2-4.13-3.7A103.44,103.44,0,0,0,76.46,33.09Zm6-3.5c-.06,1.93-.82,4.45,3.45,4.21,3.37-.18,4.92-1.26,5-4.53.06-3.66-1.07-4.43-5-4.81C81.56,24,82.44,26.76,82.45,29.59Z" transform="translate(-4.44 -3.44)" fill="#362e79"/><path d="M148.24,42.37c1.65-.08,3.31-.09,4.95-.27,1.89-.21,2.51-1.45,2.44-3.21a2.56,2.56,0,0,0-2.57-2.72c-.89-.09-1.79,0-2.68,0-6-.17-8.14-2.27-8.22-8-.09-6.34,2.47-8.94,9-8.94,2.16,0,4.32.3,6.48.45S160,21,159.94,22.75c0,2.37-1.59,1.77-2.89,1.78-2.17,0-4.34-.12-6.5,0-2,.09-2.93,1.27-2.89,3.25s1.25,2.89,3.19,2.92h1.92c6.08.13,8.55,2.48,8.55,8.15,0,6-2.39,8.45-8.57,8.61-2.41.06-4.84-.11-7.26-.27-1.91-.13-3.32-.61-3.15-3.15.19-3,2.23-1.63,3.6-1.83a15.9,15.9,0,0,1,2.29,0Z" transform="translate(-4.44 -3.44)" fill="#4f4792"/><path d="M40.27,33.57a6.79,6.79,0,0,1,2.12-5.31c1.89-1.88,3.85-3.68,5.64-5.63s3.19-2.44,5.34-.3,1,3.33-.56,4.91c-6.16,6.15-6.13,6.18.17,12.4,3.69,3.64,7.32,7.34,11.09,10.9,1.72,1.64,2,2.93.14,4.68s-3.13,1.73-4.85,0C53.74,49.57,48,44,42.38,38.4A6.29,6.29,0,0,1,40.27,33.57Z" transform="translate(-4.44 -3.44)" fill="#847cc7"/><path d="M124.88,26.75c7.16,0,9.56,2.66,9.51,10.54,0,7.67-2.4,10.2-9.46,10.2s-9.52-2.67-9.49-10.57C115.48,29.21,117.76,26.74,124.88,26.75Zm3.61,11.37c0-1.56,0-2.19,0-2.82-.08-2.26-.78-3.89-3.51-3.95s-3.43,1.59-3.67,3.82a16.1,16.1,0,0,0,.32,5.62,2.68,2.68,0,0,0,2.81,2.08c1.3,0,2.59,0,3.38-1.28A6,6,0,0,0,128.49,38.12Z" transform="translate(-4.44 -3.44)" fill="#362e79"/><path d="M105.67,29.52c1.4-.95,2.3-1.66,3.29-2.2,1.16-.63,2.74-1,3.64-.26,1.33,1.16.62,3.08.53,4.63-.1,1.83-1.76.93-2.73,1-3.34.27-5.17,1.63-4.73,5.28.23,2,0,4,.06,6s0,3.45-2.89,3.45S99.93,46,100,44c.07-4.28-.09-8.56.09-12.83.06-1.38-1.28-3.49,1.22-4.1C103.33,26.54,105,27.19,105.67,29.52Z" transform="translate(-4.44 -3.44)" fill="#362e79"/><path d="M35.07,6.3c2.83.27,4.55,1.73,4.53,4.55a4.16,4.16,0,0,1-4.28,4.37,4.2,4.2,0,0,1-4.7-4.34C30.53,8.08,32.3,6.6,35.07,6.3Z" transform="translate(-4.44 -3.44)" fill="#6760ab"/><path d="M39.71,56.17c-.63,2.8-2.19,4.4-5.06,4.12a4.07,4.07,0,0,1-4-4.55,4.19,4.19,0,0,1,4.77-4.25C38.18,51.66,39.54,53.54,39.71,56.17Z" transform="translate(-4.44 -3.44)" fill="#362e79"/><path d="M16.82,33.53c-.43,2.73-2,4.32-4.84,4.21a4.12,4.12,0,0,1-4.24-4.39,4.14,4.14,0,0,1,4.59-4.41C15.15,29,16.62,30.72,16.82,33.53Z" transform="translate(-4.44 -3.44)" fill="#4f4792"/><path d="M57.73,37.69c-2.6-.33-4.37-1.77-4.21-4.61.16-2.61,1.87-4.07,4.55-4,2.94,0,4.5,1.84,4.37,4.56C62.32,36.12,60.64,37.63,57.73,37.69Z" transform="translate(-4.44 -3.44)" fill="#847cc7"/></svg>