<svg xmlns="http://www.w3.org/2000/svg" viewBox="0 0 678.81 313.86"><path d="M562.05,303.27l77,0c2,0,4,.12,5.94.19,0,3.32,1.3,7.95-.36,9.61s-6.3.37-9.63.37H-26.36c-7,0-7,0-7-7l4-3.13c1.78-.65,3.63-.33,5.44-.33q68.6,0,137.19,0c39,.07,77.88,3,116.87,1.91,2-.05,4,.28,5.94-.32a7.93,7.93,0,0,1,5.59-1.63c6.83.53,13.9-1.43,20.44,2.45,1.91,1.13,4.58.46,6.91.46q70.91,0,141.81,0c4,0,8,.12,11.3-2.84,1-.89,2.47-.9,3.81-1,5.39-.25,10.78-.12,16.18-.08,6,.42,12-.34,18,.07,6.31-.05,12.62.18,18.93-.05,4.44-.1,8.88-.12,13.32,0,22,.22,44-.47,66,.11A6,6,0,0,1,562.05,303.27Z" transform="translate(33.35 -0.1)" fill="#2e5c9b"/><path d="M456.16.1C462.65,2.3,468.84,5,472.81,11c.18.27.42.66.67.69,4.8.71,8.39,3.11,10.23,7.64a37.8,37.8,0,0,1,2,20A46.37,46.37,0,0,1,483,49.88a170.3,170.3,0,0,0-9.09,28.19c-4.93-1.12-6.37-5.42-8.08-9.26-.88-2,1.22-3.25,2.49-4.48,3.64-3.52,4.75-7.87,4.4-12.74-.17-2.33-1.11-4.21-3.55-4.86s-4.22.6-5.56,2.44c-2.9,4-2.33,8.5-1.78,13,.62,5.07,2.48,10.06.79,15.25-1.44,11.65-7,19.2-20.63,19.69-3.1.43-6.2.88-9.3,1.3-10.08,1.37-18.26-3.6-21.51-13.28a37.12,37.12,0,0,1-2-15.62c2.28.58,2.24,2.68,2.74,4.34.85,2.87,1.49,5.8,2.92,8.46,1.88,3.48,4.75,5.8,8.72,5.75,10.81-.14,20.24-3.69,27.19-12.34a16,16,0,0,0,3.58-13.52c-.82-4.35-.36-8.94-2.94-13-.89-1.38-.29-3.25,0-4.89a17.77,17.77,0,0,0,.06-6.93c-.93-4.29-3.12-5.77-6.72-3.46-9.16,5.89-18.14,5.47-27.35.51-2-1.1-3.07-.2-3.72,1.72-.91,2.68-1.51,5.44-2.18,8.18-.42,1.76-.7,3.71-3.14,3.88-.06-2.65-.59-5.38-.1-7.92,1.48-7.81,1-14.54-4.91-21-4.29-4.7-2.34-7.88,4.11-9.78Q423.34,4.81,439.18.1Z" transform="translate(33.35 -0.1)" fill="#2e5c9b"/><path d="M492.12,303.5l-13-.08c-3.76-.93-7.58-.35-11.36-.39-2.68,0-3.12-.81-2.09-3.26,2.35-5.61,2.3-11.68,1.84-17.51-.57-7.33-5.82-10.13-12.89-7.69a14,14,0,0,1-3.3,1.08,4.2,4.2,0,0,1-3.05-.77c-.51-4.07,3.07-4.28,5.38-5.26,14.26-6.06,29.1-10.37,44.07-14.31,3.86-1,7.75-1.89,11.6-2.93,3.06-.83,4.11-2.66,3.91-5.9-.94-15.57-2.05-31.15-1.41-46.76.76-18.47,4.75-36.11,14.34-52.52-8.06,7.81-13.43,17.09-17.62,27.09a135.83,135.83,0,0,0-10.28,39.42c-1.45,15-9.69,25.83-20.46,35.22-13.61,11.87-29.11,20.93-45,29.42a9.47,9.47,0,0,1-5.73,1.34,4.81,4.81,0,0,1-2.26-.88c-8.15-15.79-15.55-31.92-22.8-48.15-7.91-17.72-14.12-35.86-16.56-55.17-1.58-12.49-3.24-25-2.24-37.65.13-2.58,2-3.67,4-4.57q28.32-12.74,56.65-25.42c1.77,1,1.94,2.9,2.36,4.62,1.3,10.23,3.66,11.79,13.33,8.37,8.69-3.08,13.55-10.32,18.35-17.54.72-1.09,1-2.49,2.07-3.34,21.11,15.2,44.32,26.47,68.44,35.87a27.81,27.81,0,0,1,16.49,16c-.83,1.37,0,2.55.46,3.77a193.25,193.25,0,0,1,10,71.17,36.55,36.55,0,0,1-.74,5.43c-2.32,11.74-6.61,14.77-18.46,13.22a73,73,0,0,0-18.74.22c18.73-3.26,36.17,15.85,39.4,28.91,2.31,9.33-2.53,17.5-12.59,21.45-7.25,2.85-15,3.05-22.58,3.75-15.06,1.4-30.14,2.57-45.28,2.74A8.21,8.21,0,0,0,492.12,303.5Z" transform="translate(33.35 -0.1)" fill="#a5ddf0"/><path d="M140.34,289.66c-1.58-2.63-.78-5.53-.73-8.27.06-3.11-1.13-4-4.1-3.95-11,.12-21.93.05-32.9.05-12.28,0-19-6-21.11-17.86-4.4-25.18-9.07-50.3-13.62-75.45-2.11-11.68-4.24-23.36-6.22-35.06a18.63,18.63,0,0,1,0-6.45c1-5.11,2.38-10.11,8.86-10.83,21.93-1,43.88-.33,65.81-.43,29.28-.14,58.56,0,87.83,0,11.5,0,18.37,5.77,20.47,17q9.57,51.19,19.35,102.37.56,2.94,1,5.9c1,6.55-.66,12.17-5.8,16.59-1.08.93-3.34,1.74-.74,3.5-1.94,1.44-4.18.78-6.27.78-21.91.08-43.83.07-65.74.09-1.93-1.87-1.4-4.31-1.41-6.56-.06-13.57,0-27.13,0-40.69,0-2.15.22-4.31-.42-6.4-2.43-8.61-6.72-11.88-15.73-11.93-3.46,0-6.93,0-10.4,0-10.33,0-12.48,1.44-16.31,10.93a32.11,32.11,0,0,0-1.31,10.27c.07,12.06.14,24.12,0,36.17-.07,5,1.53,9.8,1,14.79C141.68,286.09,142.14,288.19,140.34,289.66Z" transform="translate(33.35 -0.1)" fill="#accbeb"/><path d="M237.29,306.38l-78.3.48c-3.2,0-6.36-.35-9.09-2.14a9.65,9.65,0,0,0-5.67-1.27q-85.3.06-170.59,0c-1,0-2-.08-3-.12,1.73-1.53,3.82-.82,5.74-.83q82.05-.06,164.1-.14c1.22,0,4.2,2,3.95-1.85-5.6-8.9-3.25-19-3.77-28.49-.74-13.85-.17-27.77-.2-41.65a23.45,23.45,0,0,1,1.11-7.81c3.42-8.5,7.62-11.38,16.66-11.39h6c11.2.05,18.42,6.91,18.61,18.21.25,15.46.07,30.92.06,46.38,0,4.82-.11,9.65.06,14.46.27,7.5,3.31,10.6,10.78,10.72,10.15.17,20.3,0,30.45.06,4,0,8,.39,11.62,2.33A2.75,2.75,0,0,1,237.29,306.38Z" transform="translate(33.35 -0.1)" fill="#accceb"/><path d="M323.07,278.7c3.87-4.2,9-6.67,13.63-9.81a21.17,21.17,0,0,0,8.68-12.19c6.93-23.62,13.78-47.25,20.91-70.81,3.58-11.83,6.8-23.8,11.93-35.11,1.86,1.88,1.49,4.31,1.51,6.59.06,8.79,0,17.59,0,26.39,0,20.76,1.89,41.4,3.63,62.06.61,7.26,1.28,14.52,1.47,21.83a40.26,40.26,0,0,1-8.48,26c-2.85,3.82-6,6-10.92,5.16-2.58-.35-4.54-1.92-6.54-3.4-4.55-3.34-9.23-6.5-14.05-9.44a29.74,29.74,0,0,0-17.67-4.13C325.26,281.51,323.3,281.25,323.07,278.7Z" transform="translate(33.35 -0.1)" fill="#a5ddf0"/><path d="M363.87,297.67c2.69-.7,6.06,1.18,8.11-1.16,4.36-5,8.6-10.29,10.16-16.89,2.73-11.49.36-23.06-.3-34.58-.28-4.93-1.2-9.82-1.57-14.74-2-26.48-2.36-53-2-79.52.74-4.68,3-8.78,5-12.94,1.39,1.15.95,2.74,1,4.18a218.89,218.89,0,0,0,21.64,94.3c6.64,13.87,13.87,27.51,19.36,41.92-7.26,1-14.48,0-21.53-1.31-10.89-2-14.09-.67-19,9.25-2.11,4.26-2.65,9.31-6.36,12.78-4.57.65-9.15,1.64-13.74.11A1.58,1.58,0,0,1,363.87,297.67Z" transform="translate(33.35 -0.1)" fill="#97cfe0"/><path d="M408.4,48.22c2.85-2.62,1.78-6.51,3.13-9.63,1-2.26,1.65-4.65,2.54-7.23,3.22,1.48,6.07,3,9.09,4.15,6.39,2.38,12.65,2.33,18.61-1.52a24.15,24.15,0,0,1,5-2.27c2.69-1,4.5.16,5.49,2.7a5.69,5.69,0,0,1,.63,2.89c-1.81,8.83,2.73,16.88,3,25.47.14,4.11-.24,7.89-2.37,11.45-5.65,9.45-20.36,16.51-31.29,15.13-4.76-.6-7.37-3.68-9-7.65s-2.69-8.14-4-12.23C408.33,62.41,409.69,55.26,408.4,48.22Z" transform="translate(33.35 -0.1)" fill="#f09a5a"/><path d="M258.48,276.71l-5.06-.29c.23-1.69,1.85-1.63,2.8-2.3,7.55-5.35,8.52-12.58,6.84-21.09q-10-50.84-19.53-101.76c-.8-4.22-.94-8.49-4.09-12a18.59,18.59,0,0,0-14.85-6.59c-49.45.17-98.9.1-148.34.06-1.91,0-4,.77-5.7-.92a14.82,14.82,0,0,1,8.56-2.15q78.33,0,156.66.05c8.81,0,15.07,5.32,16.68,14q10.4,56.4,20.68,112.81C274.91,266.36,268.45,275.13,258.48,276.71Z" transform="translate(33.35 -0.1)" fill="#78a0d4"/><path d="M364.42,298.43l13.7,0c2.68,5.14,7.37,6.16,12.18,2.65,2-1.43,3.29-3.81,6.06-4.05,1.68.15,3.4.18,4.88,1.17,1,.78.09,2.27,1.12,3,8.61-5.11,16.63-4.42,23.59,2-1.13.21-3,.08-3.28.69-2.4,5.08-6.91,3.73-10.87,3.73q-73.14.06-146.29,0c-3.16,0-6.42.49-8.16-3.21-.62-1.31-2.05-.81-3.15-.83-3.66-.05-7.33.14-11-.07-2.62-.15-4.66.37-5.93,2.82-.3-.63-.61-1.25-.91-1.88-2.81-3.67-6.82-4.4-11.08-4.43-9.29-.07-18.58,0-27.87,0-9.89-.07-12.45-2.36-14-12.23a30.14,30.14,0,0,1-.4-7.92c1.74-16.7.49-33.45.91-50.17.06-2.44-.44-5,1.52-7.08,1.63,1.67.95,3.78,1,5.69.07,16.42.06,32.84.07,49.26-.24,11.6,2.9,14.77,14.62,14.77,7.82,0,15.65.2,23.47-.06,5.88-.19,10,2.25,12.44,7.35,1.12,2.34,2.47,3.22,5,3.1,3.32-.16,6.66-.05,10,0,2.64,0,5.28.4,6.7-2.84.76-1.72,2.78-1.54,4.46-1.54l16.48,0c3.58,1.94,6.75-.4,10.08-1a13.76,13.76,0,0,1,3.79.25c4.34,1.22,8.7.08,13.05.08,3.1,2.56,6.12,1.62,9.11-.27,8-.86,16,0,24-.64a73.26,73.26,0,0,0,12.74.21c2.48-.34,4.46,1.08,6.59,1.94C360.89,299.7,362.74,300.29,364.42,298.43Z" transform="translate(33.35 -0.1)" fill="#78a1d4"/><path d="M289.1,298c-3.11,1.85-6.17,4.94-9.51.33,1.71-2,3.41-4,5.13-6,5.72-6.64,12.21-11.15,21.59-7.91a9.74,9.74,0,0,0,3,0c1.86-.17,1.84,1.32,1.57,2.28-1.1,4.05-1.15,8.43-3.59,12.09-4.72-.12-9.52,1.43-14.16-.61-.95-2.85,1.86-3.79,2.85-5.72C292.8,293.32,292,297,289.1,298Z" transform="translate(33.35 -0.1)" fill="#f09a5a"/><path d="M445.18,112.88l-1.25-5q-1-5.38-1.91-10.77a6.31,6.31,0,0,1,1.36-.61c10.89-1.91,16.87-8.48,18.42-19.29a2.24,2.24,0,0,1,1.38,1.91c1,9.81-1.07,24.61-12.6,32.05C449,112.18,447.42,113.67,445.18,112.88Z" transform="translate(33.35 -0.1)" fill="#e3853e"/><path d="M307.25,298.87c-.17-3.63,1-7,1.89-10.44.32-1.21,1.89-2.58.13-3.93.87-1.14,2.3-1.54,3.19-2.84,4-5.9,4.08-5.85,10.62-3a5.48,5.48,0,0,0,4.17,2.17c1,1.25,2.68,1.2,3.79,2.21s3.08,2,2.48,3.87-2.6,1.72-4.24,1.66a27.76,27.76,0,0,1-5.35-.94c-3-.7-4.66.38-5.63,3.24s-1.24,5.88-4,7.72Q311,304.42,307.25,298.87Z" transform="translate(33.35 -0.1)" fill="#f7aa70"/><path d="M142.43,222.62c-1,1.83-1,3.81-1,5.81,0,20,.23,40.1-.16,60.14-.09,4.56,3.45,7.66,3.12,12-2.52-3.19-4.22-6.69-4.1-10.88-.71-19.51-1.08-39-.86-58.55,0-3.32.29-6.56,1.89-9.55C142,221.65,142.07,222.28,142.43,222.62Z" transform="translate(33.35 -0.1)" fill="#87addb"/><path d="M492.12,303.5a5.22,5.22,0,0,1,3.89-1.95c10.57-.7,21.14-1.21,31.69-2.09s21.11-1.65,31.52-3.31c7.29-1.17,14.09-5.08,16.31-12.36,2.64-8.67-2-16.09-7.47-22.67-8.79-10.64-19.85-16.23-34.1-14.78,6.92-3.56,14.26-3.24,21.33-2.53,13.67,1.36,18.05-2.14,18.75-16.36,1.2-24.06-2.51-47.49-9.08-70.55-.48-1.68-1.78-3.36,0-5,9,21.68,12.56,44.64,16.17,67.62,3,19,4.09,38.09,6,57.15.59,6,2,11.85-3.21,16.65a31.09,31.09,0,0,1-21.73,8.3c-2.95,1.53-6-.24-8.54.36-1.16.08-.32,1.14-.58.52-.06-.14.06-.27.33-.24,1.89.19,4.1-1.48,5.58,1C536.68,303.63,514.4,304.05,492.12,303.5Z" transform="translate(33.35 -0.1)" fill="#97cfe0"/><path d="M445.18,112.88c13.47-6.44,18.17-18.6,16.62-35.7,1.07-7.36-2-14.43-1.53-21.77.22-3.27.88-6.24,3.38-8.54,1.8-1.66,3.85-2.73,6.34-2s3.72,2.83,4.07,5.2c.89,6.09-.25,11.79-5.27,15.75-2.28,1.81-2.41,2.86-.76,5,1.92,2.48,3.35,5.34,5.91,7.3L480.05,100c-1.25,10.83-17.83,24.57-28.63,23.73-3.09-.24-4.86-1.86-5.31-4.92C445.82,116.8,445.49,114.84,445.18,112.88Z" transform="translate(33.35 -0.1)" fill="#f09a5a"/><path d="M559,303.2c-2-1.58-4.56,0-7.86-1.62h11.07l-.12,1.69Z" transform="translate(33.35 -0.1)" fill="#a5ddf0"/><path d="M426,303.21c-2.34-.75-4.86-1.17-7-2.33-5.44-3-10.47-4-15.1,1.39-1.14,1.33-2.73,1.66-4.61.64l2.1-4.47c-.51-1.68,1.2-2.92,1-4.6-2.66.38-3.7,3.34-6.29,3.64-4,3.52-7.35,8.09-13.89,6.52-3.27-.78-5.16-2-4.1-5.61,2.38-5.43,4.47-11,7.2-16.25,3.81-7.3,8-9.07,15.91-7s16.16.77,24,3.1l1.94.33a66.42,66.42,0,0,1,12.36,2.73c2.53.72,4.92,1.83,7.46,2.57,5.21,2.85,7.65,12,4.63,17.15a3.77,3.77,0,0,1-3.66,2,25.85,25.85,0,0,0-5.42.16Z" transform="translate(33.35 -0.1)" fill="#f09a5a"/><path d="M442.53,303.16c9.05-1.67,9.16-1.89,8.73-11.34-.16-3.53-1.41-6-5-7,3.37-2.17,7.43-2.2,11.07-3.52,6.24,6.12,6,13.38,3.67,21a2.33,2.33,0,0,1-1.26,1.05C454,304,448.27,303.32,442.53,303.16Z" transform="translate(33.35 -0.1)" fill="#a96c49"/><path d="M459.75,303.33c.16-.34.31-.67.47-1,.46-.52.3-1.46.79-1.76,5.88-3.67,4.93-9.5,4.83-15-.12-6.21-3.33-9.33-9.53-9.42-1.31,0-2.61.46-3.94.16-.78-.28-1.37-.7-1.28-1.65,2.09,0,3.32-1.93,5.46-2.12,7.86-.72,12.05,2.76,12.59,10.83s-.58,14.58-3.34,18.6c4.37,1.75,9.18-.85,13.33,1.49Z" transform="translate(33.35 -0.1)" fill="#97cfe0"/><path d="M439,282.06a57.76,57.76,0,0,1-11.8-3.49c3.54.63,5.92-1.92,8.59-3.37,16.5-8.93,32.55-18.56,46.07-31.79,8.93-8.74,13.92-19.1,15.51-31.78,2.7-21.56,9-42,22.61-59.64a27.29,27.29,0,0,1,9.29-8,133.24,133.24,0,0,0-11.35,25.79c-3,9.72-4.09,19.7-4.72,29.74-.91,14.6.9,29.16,1,43.75a9.69,9.69,0,0,0,.37,2.94c1.4,4.36-.38,6.46-4.65,7.45-13.23,3.08-26.32,6.68-39.21,11-6,2-11.84,4.3-17.69,6.63-1.79.71-3.86,1.25-4.79,3.31-1.82,1.92-4.9.66-6.69,2.63C439.62,278.29,440.35,280.73,439,282.06Z" transform="translate(33.35 -0.1)" fill="#97cfe0"/><path d="M440.22,276.59c2.12-2.76,5.18-1.81,7.94-2l2.93.06,1.21.9a2.17,2.17,0,0,1,.38,1.35,1.47,1.47,0,0,1-.91,1,23.87,23.87,0,0,0-10.33-.58A3,3,0,0,1,440.22,276.59Z" transform="translate(33.35 -0.1)" fill="#85a9c6"/><path d="M142.43,222.62l-1.06-1.06c2.91-8.14,6.69-10.91,15-10.94,5.14,0,10.28-.08,15.41,0,6.93.16,12.32,5,13.67,12,0,15.77.15,31.54-.08,47.3-.1,6.89-1.58,13.7,0,20.68,1.18,5.32,3.37,7.85,9,7.88,11.13.06,22.27-.15,33.39.11,3.85.09,8.27.34,8.72,5.9-9.87-3.31-20.06-1.63-30.12-2-4.48-.15-9,0-13.46,0-7.47-.06-11.34-3.88-11.36-11.33,0-20.25-.4-40.51.16-60.74.27-10-8.55-19.47-19.13-18.87C151,212.2,145.44,214.68,142.43,222.62Z" transform="translate(33.35 -0.1)" fill="#77a0d4"/><path d="M314.32,298.63c1.52-4,2.1-8.88,4.81-11.76,3-3.22,7.59,1.07,11.59.64.63-.07,1.25-.21,2-.34-.3-3.6-5.28-2.88-5.47-6.3,6-1.19,11.49.31,16.66,3.15a121.67,121.67,0,0,1,20,13.65,1.25,1.25,0,0,0,.55.76c1.36,2.53.74,3.89-2.18,2.95s-5.95-2.46-8.92-3.72a3.87,3.87,0,0,1-2.83-.37c-3.5-1.69-6.86-2.16-10.11.52C331.73,299.2,323,298.29,314.32,298.63Z" transform="translate(33.35 -0.1)" fill="#f09a59"/><path d="M340.38,297.81c4.24-6.43,8.61-1.9,12.94-.15A24.49,24.49,0,0,1,340.38,297.81Z" transform="translate(33.35 -0.1)" fill="#a1d0e6"/><path d="M289.1,298c3.72-6.23,5.17-7.24,9.94-6.72-1.6,2.75-4.82,4-6,6.95Z" transform="translate(33.35 -0.1)" fill="#f5efeb"/><path d="M396.11,297.48a10.38,10.38,0,0,1,9.44-5.6l-4.18,6.56C399.6,298.21,397.63,299.07,396.11,297.48Z" transform="translate(33.35 -0.1)" fill="#93cde2"/><path d="M452.16,277.5c0-.47,0-.94,0-1.41,3.5,0,5.31,1.62,4.8,5.29-2.65,4-6.83,3.18-10.67,3.43L439,282.07a4.92,4.92,0,0,1,1.26-5.48l1.18,0C445.57,281.13,448,281.34,452.16,277.5Z" transform="translate(33.35 -0.1)" fill="#3161a5"/><path d="M456.94,281.38a8.21,8.21,0,0,0-4.8-5.29.5.5,0,0,0,.16-.57c10.14-2.33,14.45,1.32,15.08,11.59.41,6.7-.81,12-7.16,15.22C461.72,294.94,461.61,287.8,456.94,281.38Z" transform="translate(33.35 -0.1)" fill="#f19a59"/><path d="M452.16,277.5c-.14,3.07-1.22,4.22-4.7,3.82-2.74-.32-6.85.34-6.06-4.76A10.46,10.46,0,0,1,452.16,277.5Z" transform="translate(33.35 -0.1)" fill="#eaccb4"/></svg>