<svg xmlns="http://www.w3.org/2000/svg" width="100%" height="auto" viewBox="0 0 702.68 439.75"><path d="M577.19,420.4a7.12,7.12,0,0,1,.17.9c-2.18,1.92-5,2.3-7.61,3.16a7.76,7.76,0,0,0-.09-1c-.62-2.93,1.34-4.92,3.26-6.05C575.38,416,575.17,420.16,577.19,420.4Z" transform="translate(-1.11 -0.09)" fill="#b2a7fd"/><path d="M576,408c4.27,0,9.87-2,14-1-2,1,.4,9.53,1,14-4.43,0-9.11.5-13.53.53,0-.3-.4.76-.47.47C578.2,417.76,578,411,576,408Z" transform="translate(-1.11 -0.09)" fill="#b87a68"/><path d="M673.13,178.27c6.16-.05,12.2-1.29,18.13-2.63,4.52-1,5.61.86,6.17,4.46q2.54,16.41,5.12,32.81c.17,1.12,0,2.37,1.23,3.06v6c-11-.17-21.6,2.83-32.39,4.33-8.65,1.21-17.38,2.16-25.82,4.63-4.37-.43-8.6.6-12.83,1.38-2.17.4-3.48.28-3.87-2.28q-3-19.42-6.12-38.84c-.55-3.36.46-4.77,4-5.18,6.08-.72,12.09-2,18.13-3l8.93-1.2,3,13.72c1.55,6.54,6,11.62,8.82,17.55.55,1.18,1.72,2.3,3.18,1.16,1.28-1,.78-2.25.09-3.53-2.56-4.78-5-9.61-7.51-14.43l7.16-3.42c2.12,3.6,6.15,4.34,9.43,6.13,2.42,1.31,3.44,2.34,1.09,4.64C677,205.69,675,208,673,210.18c-.8.89-1.59,2-.68,3.09,1.24,1.47,2.42.34,3.35-.59,3.18-3.16,6.25-6.43,9.45-9.57,2.32-2.28,1.93-3.81-.85-5.35-4.2-2.32-8.83-3.84-12.65-6.86C674.17,186.93,672.06,182.42,673.13,178.27Zm-21.39,15.88a4.25,4.25,0,0,0-1.09.65c-3.65,3.63-7.36,7.21-10.89,11-1.48,1.57-.79,3.13,1,4.06,4.27,2.22,8.58,4.38,12.89,6.52,1.08.54,2.29.94,3-.54a2.11,2.11,0,0,0-1.16-2.91c-2.5-1.32-5-2.75-7.57-3.82-3.54-1.45-3.12-3-.67-5.23a82.53,82.53,0,0,0,6-6.68,2,2,0,0,0,.42-2.3A1.48,1.48,0,0,0,651.74,194.15Z" transform="translate(-1.11 -0.09)" fill="#826ffe"/><path d="M571.84.09c4.71,2.75,5.16,9.5,11.14,11.4,1.82.57,1.65,4,.09,6-1,1.27-2.1,2.42-3.16,3.63-5.06.37-10-1.69-15-1-7.66-1.87-15.24-2.76-22.35,1.85H541c-5.21-6.16-4.72-9.31,2.12-13a7.87,7.87,0,0,0,2.72-2.78c2.88-4.21,6.41-6,11.43-3.35,3.32,1.74,5.36-1,7.6-2.78Z" transform="translate(-1.11 -0.09)" fill="#2a363c"/><path d="M12.24,206.1c-1.79,2.53-3.79,2.08-5.95.5-1.69-1.25-3.45-2.42-5.18-3.62v-7l1.81-.41c1.89.48,4,.43,5.44,2.08,2,2.27,3.61,1.12,5.38-.55q16.92-16,33.94-31.93c2.5-2.35,4.94-4.79,8.18-6.17,1.53,1,2.44,2.14,1.47,4-3.19-1-5,1.46-6.85,3.11C37.94,177.43,25.63,189,13,200.22,10.57,202.39,10.67,203.9,12.24,206.1Z" transform="translate(-1.11 -0.09)" fill="#9aa0a3"/><path d="M48,437.73l.11,2.11h-16L32,438Z" transform="translate(-1.11 -0.09)" fill="#9aa0a3"/><path d="M111.54,437.51l-.49,2.33h-13c.36-.54.72-1.09,1.09-1.63Z" transform="translate(-1.11 -0.09)" fill="#9aa0a3"/><path d="M99.15,438.21l-1.09,1.63h-3c.39-1.77-2.14-1.39-2.12-2.89l3.08.83c.25.77.58,1,1,.11Z" transform="translate(-1.11 -0.09)" fill="#788083"/><path d="M557.75,121.94c0,12.65.13,25.3.13,37.95q0,80.67,0,161.33c0,8.28-3.65,12.17-11.91,12.69-1.32.08-2.66,0-4,0l-165.85,0c-1.81-1-3.78-1.05-5.8-1.05q-24.88,0-49.79,0a11.32,11.32,0,0,0-5.8,1.05q-83.43,0-166.85,0c-3.53,0-7.12-.11-10.09-2-3.61-2.27-4.89-5.82-4.88-10.26q.16-86.65.06-173.32l13.87,1.46c0,52.46.08,104.91-.06,157.36,0,4.54,1.12,5.88,5.79,5.87,54.29-.16,108.58-.1,162.87-.11,12.82,0,25.64-.09,38.46-.14h19.91l44.08.13a57.05,57.05,0,0,0,23,0h48c1,1.21,2.38.95,3.68.95h43.63c1.3,0,2.68.25,3.68-.94,3.46.49,4.09-1.32,4.07-4.37-.12-16.54-.08-33.09-.1-49.63q0-50,0-100c0-4.47-.19-8.94-.29-13.42,2.48-7.33,6.8-13.91,8.82-21.43,1.59-.3,4,1.17,4.19-2.06Z" transform="translate(-1.11 -0.09)" fill="#d8d2fe"/><path d="M644.88,183c-6,1-12,2.31-18.13,3-3.54.41-4.55,1.82-4,5.18q3.18,19.41,6.12,38.84c.39,2.56,1.7,2.68,3.87,2.28,4.23-.78,8.46-1.81,12.83-1.38.41,11.45.9,22.9,1.2,34.35.67,25.24,2.36,50.43,3.79,75.63,1.09,19.24,2.1,38.47,3.14,57.71-7.48.3-15,.73-22.39-.72-7.65-57.45-18.19-114.52-21.86-172.47-2.54-.05-2.38,1.52-2.71,2.68-5,18-7.46,36.46-9.24,55-3.69,38.43-4.75,77-4.79,115.55l-21.48,3c-4.23-34.59-4.87-69.29-3.62-104.1,1.27-35.12,4.82-70,9.54-104.79.41-3,1.1-5.88,1.67-8.82,2.93-.9,6.2.79,9-1.17l8.82-.3c3.92.3,7.92,1.4,11.55-1.16h1.56a47,47,0,0,0,19-1.59l3.86-.28c4.1,1.19,8-1.2,12.08-.64Z" transform="translate(-1.11 -0.09)" fill="#2a363c"/><path d="M146.86,149.85,133,148.39c-4.65-1.68-9.29-3.37-13.94-5-2.69-.95-2.63.69-2.5,2.61a143.11,143.11,0,0,1-1.06,29.76c-15.52,1.68-31.14.75-46.69,1.93-4.55.34-8.47.64-10.74,5.13l-2,0c4.48-5.66,2.41-11.76,1.22-17.81v-2c1-1.87.06-3-1.47-4a21.74,21.74,0,0,0-.59-7.35c-.76-3.94-2-3.71-4.56-1.23-7.49,7.23-15.05,14.4-22.8,21.35-3.74,3.36-6.7,7.78-11.83,9.41-1.8-2.77-1.39-6-.63-8.68a264.87,264.87,0,0,1,28.64-64.44,3,3,0,0,1,.78-.62c2,4.34,3.54,9,6.08,12.93,3.31,5.17,7.22,9.83,14.51,9.69,6.8-.12,9.8-4.68,12.81-9.55,5.27-8.5,6.76-18.2,8.81-27.73l12.29,1.15a1,1,0,0,0,1.64.36L132.06,109c3.6,2.21,7.22,4.39,10.8,6.63,2.09,1.31,3.33.52,4.16-1.52,7-7.62,12.57-16.36,18.2-25,1.64-.75,2.32-2.92,4.42-3,2.28,1.94,3.49,4.88,6.13,6.47.08,3.1,1.83,6,.75,9.29-3.56,10.86-7.06,21.75-12.51,31.86C160.09,140.94,155.31,147.35,146.86,149.85Z" transform="translate(-1.11 -0.09)" fill="#535c62"/><path d="M557.75,121.94l-1.17.09L531.84,113a40.14,40.14,0,0,1,.72-6.79c1.2-5.71,4.33-10.91,4.27-16.91a3.19,3.19,0,0,0,2.57-2.65c.81-5.18,3.52-9.72,4.83-14.72,2,.06,2.79-1.63,4-2.71,5-4.49,10.48-8,17.26-9.09-.1,1.68-1.21,2.6-2.55,3.38-3.77,2.19-2.57,4.33.11,6.42a9,9,0,0,0,5.06,1.71c6.65.57,11.81-2.35,16.35-6.77s4.53-4.43-.25-8.31c6.85-2.64,13.78-.66,20.5.25,13.74,1.86,24.31,9.74,33.23,19.92,4.27,4.86,10.06,8.11,13.87,13.42q-5.52,7.27-11,14.54c-1.35,1.76-2.31,3.62-1.82,5.94l-3-.26c-5.55-8.42-14.89-11.87-22.45-17.73a52.11,52.11,0,0,0,6.73,11.78c4.72,5.9,8.87,12.58,16.71,15.07,1.43,1.53,1.83,3.54,2.23,5.44,1.55,7.25,3.29,14.49,4.26,21.82,1.3,9.8,4.77,19.3,4.1,29.36-2-.26-3.11-2.48-5.37-2.14-6.87,1-13.79,1.86-20.38,4.27l-3.72,0c-1.94.07-4.39-1.44-5.33,1.72l-2.86.06c-3.9-2.06-7.47,0-11.13.85l-1.88,0a39,39,0,0,0-19.15.13c-1.87-5.4-.92-11.09-1.55-16.63a112.48,112.48,0,0,0-11.73-38.12c-1.62-3.24-2.24-7-4.76-9.76-.48-5.58-3.45-10.12-5.89-14.93-1.84,5.67.42,10.76,1.51,16,.22,1,1.38,1.34,2.43,1.42C557.74,120,557.74,121,557.75,121.94Zm56.09,18.47c-2.37-17-7.37-33.23-13.56-49.16-.65-1.67-2.11-2-4.14-1.55A84.5,84.5,0,0,1,583,92.23c-5.24.42-10.41,1.71-15.73,2-2.22.13-5.39.54-4,4.5q7.9,22.74,15.78,45.49c.82,2.35,2,4.16,5,3.7,8.81-1.34,17.63-2.69,26.47-3.79C613.08,143.84,614.21,143,613.84,140.41Z" transform="translate(-1.11 -0.09)" fill="#b2a7fd"/><path d="M58.06,182.81c2.27-4.49,6.19-4.79,10.74-5.13,15.55-1.18,31.17-.25,46.69-1.93,5.49,12.94,6.54,26.62,6.71,40.45a257.94,257.94,0,0,1-3.62,44.56c-.36,2.26-.42,4.79-3.48,5.32a130.28,130.28,0,0,0-25.51,1.06c-2.61.2-3.91-.73-3.89-3.62,0-3.28-.53-6.55-.68-9.83-.08-1.87-.07-3.66-2-4.63-.18-2.62,2.08-5.05.72-7.74-4.61-9.1-8.74-18.35-8.91-29-2.44.79-2.84,2.59-3.24,4-3.39,12.21-3.55,24.41.49,36.54,1.35,4,2.76,8.08,4.15,12.11l-25-2.68c-2-.31-3.52-1-3.21-3.49,2.61-20.85-.58-42.27,6.17-62.72C55.55,191.69,56.75,187.23,58.06,182.81Z" transform="translate(-1.11 -0.09)" fill="#826ffe"/><path d="M378.11,356.85c3.37,4.13,2,9.32,2.56,13.9,1.06,8.86,2.29,17.71,3.53,26.54,1.28,9.15,1.11,18.53,3.81,27.48-1.27,1.57-3.05,1.06-4.65,1.06q-37.92,0-75.83,0c-1.6,0-3.38.51-4.65-1.06,2.71-9.27,2.37-19,4-28.39,1.32-7.79,2.11-15.67,3.14-23.51,11-1.75,21.7-5.23,32.59-7.7C354.44,362.47,366,358.52,378.11,356.85Z" transform="translate(-1.11 -0.09)" fill="#ccc4fe"/><path d="M86.92,401.82c-1.53-14.08-1-28.21-.87-42.32A165.19,165.19,0,0,1,89.92,323c2.49-10.59.44-21.16.34-31.75-.05-5.81,0-11.62.09-17.43l23.59,2.08c.23,13.17-2.08,26.13-3.56,39.14-2.17,19.12-4.86,38.18-7.52,57.24-1.1,7.88-2.58,15.72-4.13,23.54a43.94,43.94,0,0,0-.82,7.9l-10.83-.77Z" transform="translate(-1.11 -0.09)" fill="#eab47a"/><path d="M485.4,363.85c16,0,32,.08,48-.07,3.44,0,4.62,1,4.59,4.51q-.21,30.22,0,60.44c0,3.33-1.14,4.24-4.34,4.23q-48.71-.13-97.42,0c-3.2,0-4.37-.91-4.35-4.24q.18-30.21,0-60.44c0-3.58,1.21-4.52,4.62-4.49C452.76,363.93,469.08,363.85,485.4,363.85Zm-.12,13c-14.65,0-29.31.13-43.95-.09-4-.06-5.51.87-5.43,5.19q.41,21,0,41.95c-.09,4.71,1.5,5.92,6,5.89,28.47-.18,56.94-.09,85.4-.09,6.57,0,6.57,0,6.57-6.7,0-13.32-.13-26.64.09-39.95.1-6.2.42-6.2-5.76-6.2Z" transform="translate(-1.11 -0.09)" fill="#ccc4fe"/><path d="M378.11,356.85c-12.1,1.67-23.67,5.62-35.54,8.32-10.89,2.47-21.54,5.95-32.59,7.7L314.75,334a11.32,11.32,0,0,1,5.8-1.05q24.9,0,49.79,0c2,0,4,0,5.8,1.05C376.8,341.58,378.35,349.14,378.11,356.85Z" transform="translate(-1.11 -0.09)" fill="#bcb2fd"/><path d="M302.88,424.77c1.27,1.57,3.05,1.06,4.65,1.06q37.92,0,75.83,0c1.6,0,3.38.51,4.65-1.06,9,0,18,.05,27,0,2.15,0,4.12.05,3.94,3-.16,2.67,1,6-3.09,6.8a17.51,17.51,0,0,1-3.48.16q-66.88,0-133.79,0c-2.9,0-6.24.66-6.61-3.94-.34-4.15.35-6.43,5.49-6.15C285.89,425.14,294.4,424.79,302.88,424.77Z" transform="translate(-1.11 -0.09)" fill="#d8d2fe"/><path d="M218,402c-1,9.86-4.53,19.35-4.12,29.41a3.35,3.35,0,0,1-.85,2.19c-1.88,2-10.26,1.34-12.67-.88,3.14.26,3.31-2.11,3.69-4.23,2.67-14.76,5.42-29.5,7.95-44.29,1.82-10.72,4.69-21.28,5.09-32.23l10,0c-.48,5.19-2.73,10.17-1.93,15.52-2,1.59-1.49,3.68-1.13,5.73-2.26,7.59-4.24,15.23-4,23.25A6.88,6.88,0,0,0,218,402Z" transform="translate(-1.11 -0.09)" fill="#9aa0a3"/><path d="M200.23,425.78c-1.2-6.66-2.46-13.31-3.55-20-.45-2.75-1.63-4-4.58-3.88-6.93.22-13.88.16-20.82.22-1.93-.62-5.44.44-5-3s3.33-3.39,6.11-2.41c.25.08.61-.16.91-.25,5.46-.05,10.91-.27,16.36-.11,3.56.1,5.28-.63,4.26-4.72a85.15,85.15,0,0,1-2.06-12.2c-.45-4.55-2.27-6.88-7.2-6.22a52.66,52.66,0,0,1-7.43,0,12.26,12.26,0,0,0-1.46-.22c-2-.06-4.66.05-4.44-2.62s2.61-3.45,5.25-2.7c.42.11.93-.15,1.4-.23a56.46,56.46,0,0,1,6.38.14c4.59.58,5.27-1.6,4.34-5.45-.8-3.33-1.26-6.75-1.87-10.12,3.06,0,6.07-2.39,9.17-.19-1,2.07-4.42-.18-5,3-1.52,7.7,2.33,12.36,10.18,12,3.5,1.46,7.16.6,10.75.77.49,2.28-.68,4.32-1,6.48l-7.75,0c-.83,0-1.66-.11-2.48-.12-6-.06-6.7.74-5.35,6.57a68,68,0,0,1,1.78,9.75c.26,3.22,1.27,6.28,5.78,5.73,1.39-.17,4-.87,3.67,1.76-.24,1.88.34,5.22-3.31,5.06s-3.54,2.23-3.16,4.63c.26,1.62,1.37,3.18,1.35,4.75C201.46,416.72,205.62,421.73,200.23,425.78Z" transform="translate(-1.11 -0.09)" fill="#535c62"/><path d="M248.05,350.92c-2.51,2.79-1.3,6-.77,9q6.34,35.21,13,70.34c.56,2.91-.53,3.67-3,3.57-1.8-.07-3.6-.3-5.4-.46q-4.62-25.53-9.23-51.05c-1.55-8.59-3.18-17.17-4.57-25.78-.28-1.7-1-4.22,2.16-4.59C242.85,351.63,245.45,351.26,248.05,350.92Z" transform="translate(-1.11 -0.09)" fill="#788083"/><path d="M173.34,396.45c-.3.09-.66.33-.91.25-2.78-1-5.64-.93-6.11,2.41s3,2.41,5,3c-1.44,7.93-3.14,15.83-4.26,23.8s-1.73,8.73-10.09,7.55c2.69-15.12,5.48-30.22,8-45.36,2-12.05,5.15-23.92,6.09-36.15,2.73-.17,5.48-.57,8.19.27.76,5.15-2,10-1.24,15.16-.47.08-1,.34-1.4.23-2.64-.75-5-.08-5.25,2.7s2.43,2.56,4.44,2.62a12.26,12.26,0,0,1,1.46.22C174.67,380.72,172.53,388.34,173.34,396.45Z" transform="translate(-1.11 -0.09)" fill="#9aa0a3"/><path d="M248.05,350.92c-2.6.34-5.2.71-7.81,1-3.2.37-2.44,2.89-2.16,4.59,1.39,8.61,3,17.19,4.57,25.78q4.62,25.51,9.23,51.05c-2.34.78-3.75.21-4-2.49-.36-3.22-.93-6.42-1.4-9.62.65-1.43.63-2.7-.84-3.64-.18-1.25-.35-2.5-.53-3.75,1.16-1,.53-1.68-.48-2.24l-.39-1.77c.9-.84.49-1.45-.35-2a10.12,10.12,0,0,0-1.86-5.92c-.06-1.82.6-3.81-1.22-5.22.51-8.18-1.68-15.94-3.79-23.71a8.91,8.91,0,0,0-1.07-5.49c.26-3.46-1-6.79-1.14-10.13-.23-5.69-3.2-6.36-7.69-5.43l-10,0-3.29-.87q.09-4,.16-8.05c10.56-.09,21.11-.32,31.67-.21C250.09,342.91,251.1,346.64,248.05,350.92Z" transform="translate(-1.11 -0.09)" fill="#535c62"/><path d="M87.08,402.9l10.83.77c2,.75,1.48,2.29,1.22,3.76-1.12,6.24.59,12.11,2.63,17.85,1.44,4.07,3.37,7.94,7.93,9.58a2.54,2.54,0,0,1,1.85,2.65l-12.39.7L97,437.89l-1-.11L92.94,437a6.83,6.83,0,0,1-3.11-3.87,1.71,1.71,0,0,0-.82-2.24c-.61-1.72-1.23-3.45-1.84-5.18-1.6-3.7-2.8,1.59-4.3.19l.08-3c1.87-1.91,1.18-4.13.79-6.32l.33-2.68a4,4,0,0,0,0-5l-.18-5Z" transform="translate(-1.11 -0.09)" fill="#2a363c"/><path d="M213.8,351.11l3.29.88c-.4,10.95-3.27,21.51-5.09,32.23-2.53,14.79-5.28,29.53-7.95,44.29-.38,2.12-.55,4.49-3.69,4.23,0-2.32-.09-4.64-.13-7,5.39-4,1.23-9.06,1.27-13.63,0-1.57-1.09-3.13-1.35-4.75-.38-2.4-.54-4.78,3.16-4.63s3.07-3.18,3.31-5.06c.33-2.63-2.28-1.93-3.67-1.76-4.51.55-5.52-2.51-5.78-5.73a68,68,0,0,0-1.78-9.75c-1.35-5.83-.66-6.63,5.35-6.57.82,0,1.65.08,2.48.12q.94,7.37,1.87,14.73c.16,1.19-.76,3.07.86,3.33,1.36.23,2.53-1.27,2.88-2.73a10,10,0,0,0-.12-2.88q1.13-6.21,2.26-12.43c.28-2.16,1.45-4.2,1-6.48.3-1.51.6-3,.89-4.53,1-.57,1.57-1.19.35-2.11.52-3,1.39-6,.85-9.1l-.32-.29Z" transform="translate(-1.11 -0.09)" fill="#788083"/><path d="M214,343.07q-.08,4-.16,8.05l-.1.41.32.29H199.94L198,352l-2-.16c-3.1-2.2-6.11.17-9.17.19-2.55-.36-5.11-.71-7.61.27-2.71-.84-5.46-.44-8.19-.28l-3.94-.15c-3.45-.15-5.25-1.84-4.82-5.39.39-3.27,2.78-3.63,5.47-3.62Q190.88,343,214,343.07Z" transform="translate(-1.11 -0.09)" fill="#2a363c"/><path d="M590.77,419.78c3.33,3.09,3.12,7.39,3.67,11.35.26,1.86-1.58,2.18-3.2,2.19-10.26.05-20.52.15-30.79.18-2.31,0-4.6-.82-4.84-3.33-.26-2.69,2.34-2.69,4.23-3.16a48.64,48.64,0,0,0,11.59-4.17A44.51,44.51,0,0,1,590.77,419.78Z" transform="translate(-1.11 -0.09)" fill="#2a363c"/><path d="M650.91,420.45c3,2.95,2.7,6.95,3.23,10.61.3,2.07-1.49,2.61-3.38,2.6q-15.4,0-30.81,0c-2.17,0-4.22-.59-4.63-2.88-.51-2.89,2.22-2.86,4-3.31A46.06,46.06,0,0,0,630,423.7c2.62-.86,5.44-1.23,7.61-3.16Z" transform="translate(-1.11 -0.09)" fill="#2a363c"/><path d="M167.13,351.82l3.94.15c-.94,12.24-4,24.11-6.09,36.16-2.57,15.14-5.36,30.24-8,45.36-3.39.89-4-.46-3.43-3.65q6.84-36.51,13.46-73.07A31.35,31.35,0,0,0,167.13,351.82Z" transform="translate(-1.11 -0.09)" fill="#788083"/><path d="M571.23,401.69l21.48-3c4.65,4.09,3.79,6.54-3.26,9.23a20.41,20.41,0,0,0-12.41,2,39.23,39.23,0,0,0-4.85,0c-3.26.38-3.65-1.9-4.21-4.17C567.28,402.87,568.63,401.79,571.23,401.69Z" transform="translate(-1.11 -0.09)" fill="#826ffe"/><path d="M113.94,275.85l-23.59-2.08q-.39-3.31-.76-6.63a130.28,130.28,0,0,1,25.51-1.06C114.79,269.35,115.5,272.73,113.94,275.85Z" transform="translate(-1.11 -0.09)" fill="#b87a68"/><path d="M631.31,397.9c7.42,1.45,14.91,1,22.39.72,3.21,1.49,1.94,4.39,1.61,6.53-.43,2.77-3.34,1.1-5,1.83l-12.82-.06c-7.58-.4-8.94-1.42-8.45-6.17A2.89,2.89,0,0,1,631.31,397.9Z" transform="translate(-1.11 -0.09)" fill="#826ffe"/><path d="M637.48,406.92l12.82.06c-.86,4.54,0,9,.61,13.47l-13.28.09a6.93,6.93,0,0,0-.16-.89C638.66,415.41,637.84,411.16,637.48,406.92Z" transform="translate(-1.11 -0.09)" fill="#b87a68"/><path d="M240.76,396.71c1.82,1.41,1.16,3.4,1.22,5.22L218,402a6.88,6.88,0,0,1,2-5.57Z" transform="translate(-1.11 -0.09)" fill="#2a363c"/><path d="M557.74,119c-1-.08-2.21-.39-2.43-1.42-1.09-5.21-3.35-10.3-1.51-16,2.44,4.81,5.41,9.35,5.89,14.93A3.46,3.46,0,0,0,557.74,119Z" transform="translate(-1.11 -0.09)" fill="#9281fe"/><path d="M577.73,181a38.92,38.92,0,0,1,19.15-.12l-.24,1.61-8.82.3c-3.13-1.46-6.31-.91-9.48-.19l.07.07C578.18,182.13,578,181.58,577.73,181Z" transform="translate(-1.11 -0.09)" fill="#9281fe"/><path d="M637.47,419.65a6.93,6.93,0,0,1,.16.89c-2.17,1.93-5,2.3-7.61,3.16a6.49,6.49,0,0,0-.09-1c-.62-2.92,1.35-4.92,3.26-6C635.66,415.23,635.44,419.41,637.47,419.65Z" transform="translate(-1.11 -0.09)" fill="#b2a7fd"/><path d="M578.34,182.62c3.17-.72,6.35-1.27,9.48.19-2.8,2-6.07.27-9,1.17-.17-.49-.33-1-.49-1.48Z" transform="translate(-1.11 -0.09)" fill="#695acb"/><path d="M245.59,417.6c1.47.94,1.49,2.21.84,3.64C245,420.28,244.91,419,245.59,417.6Z" transform="translate(-1.11 -0.09)" fill="#9aa0a3"/><path d="M244.58,411.61c1,.56,1.64,1.21.48,2.24A1.48,1.48,0,0,1,244.58,411.61Z" transform="translate(-1.11 -0.09)" fill="#9aa0a3"/><path d="M243.84,407.85c.84.54,1.25,1.15.35,2C243.23,409.32,243.13,408.66,243.84,407.85Z" transform="translate(-1.11 -0.09)" fill="#9aa0a3"/><polygon points="577.23 182.53 577.23 182.41 577.31 182.6 577.23 182.53" fill="#2a363c"/><path d="M147,114.09c-.83,2-2.07,2.83-4.16,1.52-3.58-2.24-7.2-4.42-10.8-6.63,1.23-4.73.93-9.55.94-14.36q0-21.47,0-42.95C133,42.13,136.05,39,145.41,39H532.5l5.5,0c1.48.91,2.77,2.23,4.69,2.2a4.07,4.07,0,0,0,.37.55c.34,2.09.68,4.19,1,6.28-.93.39-.79.75,0,1.08a.72.72,0,0,1-.16.9l-57.07,0-18-.08-48,.08-49-.08-22,.08L293,50l-8,.11Q217.66,50,150.35,49.8c-3,0-3.59,1.28-3.56,3.9.13,11.8.13,23.6.18,35.39Q147,101.6,147,114.09Z" transform="translate(-1.11 -0.09)" fill="#d8d2fe"/><path d="M85.46,82.08c.19,1,.39,2,.58,3.07L85.86,87l-4.48,1.67L67.14,92.2c-4.34,1.27-8.77,1-13.19.75-7.62-.36-11.11-4.08-10.92-11.7A41.61,41.61,0,0,1,44.91,70c2.39-7.8,1.75-16.15,4.45-23.87,1.58-4.5,3.84-8.45,8.47-10.49a1.8,1.8,0,0,0,2.58-1l2.67-.38a2.14,2.14,0,0,0,3,0l3,0a26.1,26.1,0,0,0,11,0l1.64.39a2,2,0,0,0,2.59,1c3.2,1.81,6.1,4,8,7.24a1.78,1.78,0,0,0,1,2.13c.28,2.29.36,4.56-1,6.62-1.33,2.41-4,4.06-4.09,7.18C83,63.5,81.85,73,85.46,82.08Z" transform="translate(-1.11 -0.09)" fill="#2a363c"/><path d="M87.08,92.78c-2,9.53-3.54,19.23-8.81,27.73-3,4.87-6,9.43-12.81,9.55-7.29.14-11.2-4.52-14.51-9.69-2.54-4-4.09-8.59-6.08-12.93-.66-4.82,1.88-7.46,6.16-8.74,5.21-1.55,10.47-3,15.71-4.42,5.49-.25,11-.5,16.27-2.2C84.37,92.33,85.89,91.61,87.08,92.78Z" transform="translate(-1.11 -0.09)" fill="#788083"/><path d="M16.08,181.18c5.13-1.63,8.09-6.05,11.83-9.41,7.75-7,15.31-14.12,22.8-21.35,2.57-2.48,3.8-2.71,4.56,1.23a21.74,21.74,0,0,1,.59,7.35c-3.24,1.38-5.68,3.82-8.18,6.17q-17,16-33.94,31.93c-1.77,1.67-3.36,2.82-5.38.55-1.47-1.65-3.55-1.6-5.44-2.08,2.8-4.58,7-7.86,10.91-11.36C14.84,183.31,16,182.66,16.08,181.18Z" transform="translate(-1.11 -0.09)" fill="#d8d2fe"/><path d="M543.06,41.77a3.25,3.25,0,0,1-.36-.55c0-1,.08-2.07.13-3.1-.11-2.26,1-4.85-1.79-6.35.86-1.14.14-2-.47-2.92.86-2.23.32-4.54.41-6.82h1.54a3.76,3.76,0,0,1,.15,1c-.52,4.52,3.84,5.47,6.11,7.68,1.71,1.67,2.46-1.82,3.87-2.72a6.42,6.42,0,0,1,9.13,2.64A2.23,2.23,0,0,0,564.51,32a1.61,1.61,0,0,0,1.32-2.23c-1.53-3.13.57-6.55-1-9.62,5.08-.71,10,1.35,15,1q0,4.36,0,8.73c-1.94.07-4.15-1.95-5.67-.38-3.18,3.3-6,6.62-11.33,5.64-1.13-.21-1.12,1.81-1.78,2.72-2.76,3.78-5.75,4.06-9.06.87-.78-.75-1-2.16-2.64-2.21C548.33,39.43,546.34,41.41,543.06,41.77Zm13.33-12.7c-2.51.36-3.87,1.59-3.76,4.28.09,2.24.11,4.6,3,4.76s4.09-1.73,4.22-4.4A4.15,4.15,0,0,0,556.39,29.07Z" transform="translate(-1.11 -0.09)" fill="#535c62"/><path d="M85.46,82.08C81.85,73,83,63.5,88.22,58.86c5.12.66,3.4,4.74,3.87,7.73C90.51,72,91.6,78.59,85.46,82.08Z" transform="translate(-1.11 -0.09)" fill="#eab47a"/><path d="M83,92.08c-5.29,1.7-10.78,2-16.27,2.2.13-.7.26-1.39.4-2.08l14.24-3.54C81.93,89.8,82.47,90.94,83,92.08Z" transform="translate(-1.11 -0.09)" fill="#eab47a"/><path d="M92.09,66.59c-.47-3,1.25-7.07-3.87-7.73.1-3.12,2.77-4.77,4.1-7.18,2.13,3,3.73,5.84,3,9.9C94.87,64,94.16,65.54,92.09,66.59Z" transform="translate(-1.11 -0.09)" fill="#9aa0a3"/><path d="M542.83,38.12c-.05,1-.09,2.07-.13,3.1-1.93,0-3.22-1.29-4.7-2.2.62-3.45-2.38-7.82,2.57-10.17.61.9,1.33,1.78.46,2.92C539.32,34.54,537.63,37.3,542.83,38.12Z" transform="translate(-1.11 -0.09)" fill="#9aa0a3"/><path d="M80.07,34.27a26.1,26.1,0,0,1-11,0A16.89,16.89,0,0,1,80.07,34.27Z" transform="translate(-1.11 -0.09)" fill="#9aa0a3"/><path d="M66.08,34.23a2.14,2.14,0,0,1-3,0A2,2,0,0,1,66.08,34.23Z" transform="translate(-1.11 -0.09)" fill="#9aa0a3"/><path d="M101,94.29a1,1,0,0,1-1.64-.36C100.15,93,100.61,93.5,101,94.29Z" transform="translate(-1.11 -0.09)" fill="#eab47a"/><path d="M60.41,34.6a1.8,1.8,0,0,1-2.58,1A1.84,1.84,0,0,1,60.41,34.6Z" transform="translate(-1.11 -0.09)" fill="#9aa0a3"/><path d="M84.3,35.69a2,2,0,0,1-2.59-1C83,34,83.75,34.54,84.3,35.69Z" transform="translate(-1.11 -0.09)" fill="#9aa0a3"/><path d="M93.28,45.06a1.78,1.78,0,0,1-1-2.13C93.42,43.25,94.17,43.76,93.28,45.06Z" transform="translate(-1.11 -0.09)" fill="#9aa0a3"/><path d="M85.86,87,86,85.15C87,85.86,87.21,86.5,85.86,87Z" transform="translate(-1.11 -0.09)" fill="#eab47a"/><path d="M673.13,178.27c-1.07,4.15,1,8.66-1.5,12.63a4.41,4.41,0,0,0-3.08,1.93l-7.16,3.42-4.58-.75-3-13.71c-.7-4.68-.17-8.87,4.18-11.83,1.9-1.29,1.74-3.19,1.26-5.36-2-8.92-3.45-18-5.6-26.83-2.36-9.77-3.59-20.17-12.25-27.15,2.68-6.07,7.34-10.73,11.35-15.86,4.49,3.08,7.93,6.89,9.21,12.4,4.23,18.31,6.37,37,8.76,55.56C671.39,167.93,673.79,172.87,673.13,178.27Z" transform="translate(-1.11 -0.09)" fill="#b87a68"/><path d="M543.06,41.77c3.28-.36,5.27-2.34,6.39-5.23,1.63.05,1.86,1.46,2.64,2.21,3.31,3.19,6.3,2.91,9.06-.87.66-.91.65-2.93,1.78-2.72,5.33,1,8.15-2.34,11.33-5.64,1.52-1.57,3.73.45,5.67.38,2.24,4.72.12,8.55-2.51,12.28-4.08.73-5,2.23-4.61,7.58a6.14,6.14,0,0,0,3.06-3c3,3.06,3.83,8,8.32,9.78,4.78,3.88,4.79,3.9.25,8.31s-9.7,7.34-16.35,6.77A9,9,0,0,1,563,69.9c-2.68-2.09-3.88-4.23-.11-6.42,1.34-.78,2.45-1.7,2.55-3.38,1.15-3.57-1.07-3-3.16-2.54-6.1,1.38-11-.69-15-5.25-.92-1-1.52-2.7-3.44-2.32l.07,0a.72.72,0,0,0,.16-.9c0-.36,0-.72,0-1.08C543.74,46,543.4,43.86,543.06,41.77Z" transform="translate(-1.11 -0.09)" fill="#b87a68"/><path d="M652.75,94.76c-4,5.13-8.67,9.79-11.35,15.87l-2.47,0c-.49-2.32.47-4.18,1.82-5.94q5.54-7.26,11-14.54C655.46,91,652.66,93.16,652.75,94.76Z" transform="translate(-1.11 -0.09)" fill="#826ffe"/><path d="M575.87,46.75a6.14,6.14,0,0,1-3.06,3c-.42-5.35.53-6.85,4.61-7.58C577.09,43.77,575.46,44.91,575.87,46.75Z" transform="translate(-1.11 -0.09)" fill="#535c62"/><path d="M75.16,272c-2.71,13.52-6.81,26.68-10.62,39.9-8.36,29-17.25,57.89-27.95,86.17-.7,1.85-1.1,3.81-1.64,5.72l-10.72-1-.08-1.13c2.27-16.43,4.13-32.92,8-49.1,2.49-10.51,5-21,9.26-31s3.87-20.45,5.69-30.69c1.24-7,2.19-14.08,3.27-21.12Z" transform="translate(-1.11 -0.09)" fill="#eab47a"/><path d="M57.32,165c1.19,6.05,3.26,12.15-1.22,17.81q-14.62,20.06-29.22,40.12c-1,1.33-1.74,2.87-3.64,3.1-.61-.54-1.59-1-1.77-1.63-1.25-4.56-4.38-6.7-8.86-7.26L27.54,195a.63.63,0,0,0,.59-.51l1.19-1.4c2.81-2.24,3.12-6.35,5.86-8.43C43.08,178.68,49.8,171.39,57.32,165Z" transform="translate(-1.11 -0.09)" fill="#9aa0a3"/><path d="M24.23,402.78l10.72,1c1.21,1,1.17,2.28.91,3.64-1.06,5.79.51,11.21,2.31,16.6,1.5,4.49,3.31,8.7,8.11,10.74,1.18.5,2.53,1.23,1.69,3L32,438c-4-1.16-5.68-4.12-6.29-7.94a2,2,0,0,0-.86-2.61l-.43-1c-.08-.93-.52-1.65-1.52-1.43s-.9,1.13-.61,1.94l-.1,1.88c-1.79,2.23-.67,4.78-.77,7.2-2.15-.1-1.55-1.77-1.54-2.93,0-4.75.11-9.51.18-14.27a2.63,2.63,0,0,0,.45-3.3c1.16-3.77-.21-7.56.13-11.34Z" transform="translate(-1.11 -0.09)" fill="#2a363c"/><path d="M57.32,165c-7.52,6.41-14.24,13.7-22.14,19.7-2.74,2.08-3,6.19-5.86,8.43-1.87-.78-.95.81-1.19,1.4a.63.63,0,0,1-.59.51c-4.69.94-6.93,5.28-10.58,7.67-1.62,1.06-2.52,3.13-4.72,3.41-1.57-2.2-1.67-3.71.77-5.88,12.62-11.21,24.93-22.79,37.47-34.1,1.83-1.65,3.66-4.09,6.85-3.11C57.33,163.66,57.32,164.32,57.32,165Z" transform="translate(-1.11 -0.09)" fill="#d8d2fe"/><path d="M75.16,272l-24.83-2.19c-.58-2.59.57-5,.81-7.48l25,2.68,1,.49C76.45,267.61,76.49,270,75.16,272Z" transform="translate(-1.11 -0.09)" fill="#b87a68"/><path d="M12.61,217.12c4.48.56,7.61,2.7,8.86,7.26.18.66,1.16,1.09,1.77,1.63-2.68,4.11-5.88,2.23-8.67.42C10.6,223.88,10.12,220.79,12.61,217.12Z" transform="translate(-1.11 -0.09)" fill="#788083"/><path d="M21.39,436.05c.1-2.42-1-5,.77-7.2C22.82,431.35,23.78,433.88,21.39,436.05Z" transform="translate(-1.11 -0.09)" fill="#9aa0a3"/><path d="M24.23,402.78l-3.62,1.43c-.67-3.4,2.31-1.77,3.54-2.56C24.18,402,24.21,402.4,24.23,402.78Z" transform="translate(-1.11 -0.09)" fill="#9aa0a3"/><path d="M20.48,415.55a2.63,2.63,0,0,1-.45,3.3C19,417.59,19.11,416.48,20.48,415.55Z" transform="translate(-1.11 -0.09)" fill="#9aa0a3"/><path d="M22.26,427c-.29-.81-.48-1.7.61-1.94s1.44.5,1.52,1.43Z" transform="translate(-1.11 -0.09)" fill="#9aa0a3"/><path d="M24.82,427.48a2,2,0,0,1,.86,2.61A1.68,1.68,0,0,1,24.82,427.48Z" transform="translate(-1.11 -0.09)" fill="#9aa0a3"/><path d="M77.13,265.45l-1-.49c-1.38-4-2.79-8.06-4.14-12.11-4-12.13-3.88-24.33-.49-36.54.4-1.42.8-3.22,3.24-4,.17,10.67,4.3,19.92,8.91,29,1.36,2.69-.9,5.12-.72,7.74L79.49,262C79.1,263.42,79,265,77.13,265.45Z" transform="translate(-1.11 -0.09)" fill="#695acb"/><path d="M82.87,425.85c1.5,1.4,2.7-3.89,4.3-.19-2.81,2.35-.64,5.58-1.46,8.29-.33,1.1-.19,2.48-1.83,2.34-1.26-.1-1.41-1.18-1.4-2.21C82.5,431.33,81.65,428.54,82.87,425.85Z" transform="translate(-1.11 -0.09)" fill="#788083"/><path d="M83.74,416.54c.39,2.19,1.08,4.41-.79,6.32C82.32,420.64,82,418.47,83.74,416.54Z" transform="translate(-1.11 -0.09)" fill="#788083"/><path d="M84.08,408.86a4,4,0,0,1,0,5A6.51,6.51,0,0,1,84.08,408.86Z" transform="translate(-1.11 -0.09)" fill="#788083"/><path d="M87.08,402.9l-3.18,1c-.48-2.88,1.94-1.48,3-2.05C87,402.18,87,402.54,87.08,402.9Z" transform="translate(-1.11 -0.09)" fill="#788083"/><path d="M89,430.84a1.71,1.71,0,0,1,.82,2.24C88.7,432.65,88.26,432,89,430.84Z" transform="translate(-1.11 -0.09)" fill="#788083"/><path d="M651.74,194.15a1.48,1.48,0,0,1,1.86.71,2,2,0,0,1-.42,2.3,82.53,82.53,0,0,1-6,6.68c-2.45,2.27-2.87,3.78.67,5.23,2.61,1.07,5.07,2.5,7.57,3.82a2.11,2.11,0,0,1,1.16,2.91c-.68,1.48-1.89,1.08-3,.54-4.31-2.14-8.62-4.3-12.89-6.52-1.79-.93-2.48-2.49-1-4.06,3.53-3.75,7.24-7.33,10.89-11A4.25,4.25,0,0,1,651.74,194.15Z" transform="translate(-1.11 -0.09)" fill="#d8d2fe"/><path d="M668.55,192.83a4.41,4.41,0,0,1,3.08-1.93c3.82,3,8.45,4.54,12.65,6.86,2.78,1.54,3.17,3.07.85,5.35-3.2,3.14-6.27,6.41-9.45,9.57-.93.93-2.11,2.06-3.35.59-.91-1.07-.12-2.2.68-3.09,2-2.22,3.94-4.49,6.06-6.58,2.35-2.3,1.33-3.33-1.09-4.64C674.7,197.17,670.67,196.43,668.55,192.83Z" transform="translate(-1.11 -0.09)" fill="#d8d2fe"/><path d="M656.81,195.5l4.58.75c2.5,4.82,5,9.65,7.51,14.43.69,1.28,1.19,2.53-.09,3.53-1.46,1.14-2.63,0-3.18-1.16C662.85,207.12,658.36,202,656.81,195.5Z" transform="translate(-1.11 -0.09)" fill="#d8d2fe"/><path d="M564.87,20.19c1.53,3.07-.57,6.49,1,9.62A1.61,1.61,0,0,1,564.51,32a2.23,2.23,0,0,1-2.73-1.42A6.42,6.42,0,0,0,552.65,28c-1.41.9-2.16,4.39-3.87,2.72-2.27-2.21-6.63-3.16-6.11-7.68a3.76,3.76,0,0,0-.15-1C549.63,17.43,557.21,18.32,564.87,20.19Z" transform="translate(-1.11 -0.09)" fill="#b87a68"/><path d="M96,437.78l1,.11C96.6,438.75,96.27,438.55,96,437.78Z" transform="translate(-1.11 -0.09)" fill="#9aa0a3"/><path d="M146.86,149.85c8.45-2.5,13.23-8.91,17.15-16.18,5.45-10.11,9-21,12.51-31.86,1.08-3.3-.67-6.19-.75-9.29,1.62-3,4.61-3.34,7.49-3.87,1.49.14,3,.4,4.46.4q53.13,0,106.25,0l0,.19c0,1.28,0,2.56,0,3.85-13.81.34-13.72.33-13.06,11.78.19,3.19,1.51,4.37,4.6,4.34,4.79-.05,9.58.15,14.37.23q5.07,20,10.15,39.91c-2.14.65-4.68-.13-6.54,2.58h7.44c2.66,9.56,6,19,7,28.94l-107.3.15a35.39,35.39,0,0,0-4,0c-3.49.43-4,2-1.66,5.19,1.64,2.64,3.34,2.53,5.09.11,9.48-.08,19-.23,28.45-.22q38.7,0,77.4.22c6.37,2.35,7.1,7.64,7,13.38-2.16.07-4.31.19-6.47.2H210.1a32.78,32.78,0,0,0-5,.26,2.32,2.32,0,0,0,0,4.58,22.85,22.85,0,0,0,4.46.25q34.95,0,69.88,0c15.14,0,30.27.13,45.41.2a18.92,18.92,0,0,1,1.91,4c4.86,22.63,11.91,44.7,17.49,67.15,3,12.19,7,24.15,9.61,36.46-12.82.05-25.64.13-38.46.14-54.29,0-108.58-.05-162.87.11-4.67,0-5.8-1.33-5.79-5.87C146.94,254.76,146.87,202.31,146.86,149.85ZM261.08,262.08c-6.66,0-13.31-.06-20,0-7.49.08-12.2,4.82-12.15,12.11s4.51,11.64,12,11.69q20,.12,39.93,0c7.19-.05,12-4.9,12-11.84S288.24,262.19,281,262.1C274.39,262,267.73,262.08,261.08,262.08ZM240.13,93.13c-5.48,0-11,.12-16.44,0-4.07-.12-5.82,1.68-5.59,5.67a29.13,29.13,0,0,1,0,4.48c-.51,4.78,1.73,6.63,6.35,6.56,8.29-.12,16.6,0,24.9,0,12.18,0,12.18-.08,11.68-12.2-.13-3.18-1.29-4.53-4.46-4.47C251.08,93.21,245.6,93.14,240.13,93.13Zm3.66,130.75c12.13,0,24.26,0,36.39,0,2.29,0,5-.19,5.15-2.71.21-2.76-2.65-3.41-4.93-3.93a11.36,11.36,0,0,0-2.48-.07q-32.91,0-65.8,0a33.92,33.92,0,0,0-6.39.84c-1.7.33-3.41,1.27-3.1,3.22.27,1.77,1.93,2.58,3.78,2.59h37.38Zm51.93-73.18c-4.55-1.43-9.19.73-11.4-4.08-.41-.9-2.69-.8-3.75-.08-2.64,1.79-5.29,3.19-8.62,2.89-.46,0-1.22.64-1.43,1.16-.29.7.29,1.15,1,1.32A39.93,39.93,0,0,0,295.72,150.7Zm-87.46-39.61c2.56.47,3.72-.68,3.69-3.54s-.82-4.34-4-4.34-3.87,1.61-3.92,4.38C204,110.55,205.4,111.42,208.26,111.09Zm-.4,42.89c2.68.12,4.69-1,4.75-3.47s-1.82-4.3-4.53-4.3c-2.46,0-4,1.1-4,3.95S205.3,154.18,207.86,154Zm33.45-2c1.36-.35,3.74.72,3.85-1.05.14-2.35-2.36-1.58-3.84-1.64s-3.68-.44-3.65,1.42C237.7,152.83,240.05,151.61,241.31,152Zm15.76.07c.95-.71,3.32.83,3.4-1.27.08-1.83-2.15-1.52-3.53-1.49s-3.49-.45-3.39,1.6C253.63,152.63,255.67,151.7,257.07,152.09Zm-32.63,0c.73-.94,3.19,1,3.06-1.54-.07-1.47-2-1.28-3.29-1.26-1.41,0-3.63-.35-3.63,1.4C220.58,152.78,222.88,151.63,224.44,152.12Zm-14.51-30.65c-.21-1.17.42-3.11-1.56-2.94-1.79.15-1.25,2-1.24,3.24s-.44,3.12,1.5,3C210.41,124.58,209.73,122.68,209.93,121.47Z" transform="translate(-1.11 -0.09)" fill="#826ffe"/><path d="M373.83,312.82H362q-6-22.71-11.94-45.42c-4.43-16.88-8.72-33.8-13.34-50.62-1.19-4.37-1.19-9.29-4.76-12.82.4-1.48-.28-2.67-1.05-3.83,1.42-4.76-2.55-9.19-.87-14,2.94-3.67,2.48-4.51-3-5.38-1.62-5.88-3.68-11.69-4.7-17.67-.64-3.72-3.18-7-2.33-11,2.5-.62,5.4.86,8.23-1.48-3.43-1.31-6.39-.57-9.26-.72l-10.89-40.47c1.82-.09,3.64-.26,5.47-.27,10.59,0,11.66-1.28,10.22-11.74-.4-2.88-1.53-4.44-4.8-4.33C313.63,93.25,308.3,93,303,93c-.34-1.27-.68-2.53-1-3.8V89c15.6,0,31.2,0,46.79.1,1.76,0,3.69-.63,5.2.91.73,2.21-1.79,6.3,1.73,6.37,2.41,0,.74-4.13,1.23-6.36a2.19,2.19,0,0,1,2-1l1,.11a6.75,6.75,0,0,0,0,1.49c3.37,13.47,6.64,27,10.26,40.36.48,1.76,1.1,4.23,3.46,5.08L374,154q-.06,64.42-.11,128.84l-2.88.21c-2.13-1.51-4.2-2.07-6.08.39-2.5,1-4,2.59-3.82,5.45q-2.44,2.53,0,5.07a6.19,6.19,0,0,0,1.85,5c.32,2.11,1.93,1.9,3.41,1.91l7.44.08ZM356.52,154c2.64.2,4.31-.61,4.24-3.51s-1.51-4.23-4.29-4.32c-3.06-.09-4.18,2.05-4.21,4.45S354,154.39,356.52,154Zm-.16-42.87c2.54.22,4.29-.43,4.34-3.4s-1.38-3.67-4-3.75c-2.79-.09-3.86.92-3.82,3.73C352.9,110.25,353.83,111.42,356.36,111.1Zm-16.13,41c.84-.85,3.22.9,3.2-1.48,0-1.49-2-1.34-3.24-1.32s-3.63-.37-3.7,1.34C336.41,152.81,338.74,151.6,340.23,152.12Z" transform="translate(-1.11 -0.09)" fill="#826ffe"/><path d="M488.88,312.94h-48c-1.4-9.8-4.74-19.12-7-28.7-2-8.46-5.51-16.57-6-25.38,16-1.22,32-1,48-.88,1.82,11.18,5.32,22,8,32.93C485.69,298.22,488.28,305.36,488.88,312.94Z" transform="translate(-1.11 -0.09)" fill="#b2a7fd"/><path d="M373.83,312.82,373.77,301l.12-1,20.46-.05c10.73,0,10.6,0,10.6-10.75,0-4.44-1.62-6.36-6.16-6.28-8.31.15-16.63,0-24.94-.05q0-64.42.11-128.84c2.39.05,2.78,1.87,3.33,3.64,1.87,6.12,4.4,12,5.64,18.35a51.61,51.61,0,0,1,.93,7.36C383.41,206.9,385,230.47,383,254c-.22,2.6.42,4.05,3.47,4,6.14-.15,12.29,0,18.44,0,3.36,13.25,6.85,26.47,10,39.77,1.19,5,4.3,9.69,3,15.21Z" transform="translate(-1.11 -0.09)" fill="#b2a7fd"/><path d="M488.88,312.94c-.6-7.58-3.19-14.72-5-22-2.7-11-6.2-21.75-8-32.93,12.42,0,24.84-.09,37.26,0,3.35,0,4.94-1.09,4.75-4.59-.16-3.14,0-6.29,0-9.44a3,3,0,0,1,3,2.72c1.26,5.45,3.23,10.73,4.55,16.12,1,3.84,3.31,7.88,1.33,12.16a5.5,5.5,0,0,1-2.93-3.71c-.57-2.78-6.73-6.61-9.33-6-6.32,1.54-9.27,5.47-9.54,12.67-.78.23-1.65.8-2.33.63-6.95-1.72-8.76-.65-11.7,5.62-1.55,3.31.84,5.52,1.92,7.52,1,1.76,4.85,3.6,6.76,2.45,4.22-2.55,5,.56,6.12,2.89,2,4.1,5,3.93,8.66,2.9,4-1.15,4.25-4.1,3.79-7.36a55,55,0,0,0-1.41-5.76c5.11-1.33,7.08-5.77,9.59-9.67.08-.12.28-.16.43-.24a4.48,4.48,0,0,1,2.76,2.68c1.84,6.44,3.3,13,5.41,19.35,1.56,4.68,1.48,10,4.92,14-1,1.19-2.38.94-3.68.94H492.56C491.26,313.89,489.88,314.15,488.88,312.94Z" transform="translate(-1.11 -0.09)" fill="#bcb2fd"/><path d="M543.57,145.52c.1,4.48.29,8.95.29,13.42q0,50,0,100c-2-.12-2.59-1.4-3.06-3.23-2.75-10.68-5.74-21.29-8.48-32-4.1-15.95-9.25-31.62-12.44-47.8-.36-1.82-1.49-1.93-2.89-1.92-.56-9,1.69-17.88.86-26.88,3.07,2.43,6,5.09,9.24,7.23,4.63,3,8.16,2.25,11.53-2.15C540.29,150,541.92,147.76,543.57,145.52Z" transform="translate(-1.11 -0.09)" fill="#bcb2fd"/><path d="M543.57,145.52c-1.65,2.24-3.28,4.51-5,6.71-3.37,4.4-6.9,5.19-11.53,2.15-3.26-2.14-6.17-4.8-9.24-7.23l-18.61-23.34c-.48-2.76-2.13-3.79-4.91-3.69-3.79.14-7.59,0-11.38,0-2.38-.37-4.75-.79-7.14-1.1-1.93-.24-2.9-1.23-2.83-3.2,2.33-5.42,3.8-11.27,7.93-15.79l18.89,6.25c7.16,4.63,12.83,11,19.29,16.43,3,2.52,6.2,7.77,9.08,6.67,3.48-1.34,3.89-7.15,4.91-11.31,7,.26,13,3.67,19.33,6C550.37,131.61,546.05,138.19,543.57,145.52Z" transform="translate(-1.11 -0.09)" fill="#b87a68"/><path d="M517,174c1.4,0,2.53.1,2.89,1.92,3.19,16.18,8.34,31.85,12.44,47.8,2.74,10.68,5.73,21.29,8.48,32,.47,1.83,1,3.11,3.06,3.23,0,16.54,0,33.09.1,49.63,0,3.05-.61,4.86-4.07,4.37-3.44-4-3.36-9.32-4.92-14-2.11-6.35-3.57-12.91-5.41-19.35a4.48,4.48,0,0,0-2.76-2.68l0-2c2-4.28-.38-8.32-1.33-12.16-1.32-5.39-3.29-10.67-4.55-16.12a3,3,0,0,0-3-2.72v-5c1-.67,1-1.34,0-2C517.5,216,518.6,195,517,174Z" transform="translate(-1.11 -0.09)" fill="#b2a7fd"/><path d="M417.91,313c1.32-5.52-1.79-10.2-3-15.21-3.17-13.3-6.66-26.52-10-39.77,7.65.44,15.37-1.1,23,.89.5,8.81,4,16.92,6,25.38,2.28,9.58,5.62,18.9,7,28.7A57.05,57.05,0,0,1,417.91,313Z" transform="translate(-1.11 -0.09)" fill="#bcb2fd"/><path d="M331.92,204c3.57,3.53,3.57,8.45,4.76,12.82,4.62,16.82,8.91,33.74,13.34,50.62q6,22.71,11.94,45.42h-8c-2.62-12.31-6.59-24.27-9.61-36.46-5.58-22.45-12.63-44.52-17.49-67.15a18.92,18.92,0,0,0-1.91-4C327.24,204.77,329.77,205.43,331.92,204Z" transform="translate(-1.11 -0.09)" fill="#9281fe"/><path d="M552.39,124.09c-6.34-2.34-12.34-5.75-19.33-6-3.77-3.07-3.77-3.07-1.22-5.11L556.58,122C556.43,125.26,554,123.79,552.39,124.09Z" transform="translate(-1.11 -0.09)" fill="#9281fe"/><path d="M647.55,176.08c.12,1.61-.75,2.14-2.21,2-4.51-2.1-8.65-.76-12.69,1.38l-3.86.28c-2-1.86-5,.38-7-1.54,6.59-2.41,13.51-3.23,20.38-4.27C644.44,173.6,645.58,175.82,647.55,176.08Z" transform="translate(-1.11 -0.09)" fill="#9281fe"/><path d="M621.8,178.21c2,1.92,5-.32,7,1.54a47,47,0,0,1-19,1.59c0-.44.09-.89.14-1.33l2.86-.06c1.93-.08,4.25,1,5.33-1.72Z" transform="translate(-1.11 -0.09)" fill="#695acb"/><path d="M632.65,179.47c4-2.14,8.18-3.48,12.69-1.38l-.61.74C640.66,178.27,636.75,180.66,632.65,179.47Z" transform="translate(-1.11 -0.09)" fill="#695acb"/><path d="M596.64,182.51l.24-1.61,1.88,0,9.43.49C604.56,183.91,600.56,182.81,596.64,182.51Z" transform="translate(-1.11 -0.09)" fill="#695acb"/><path d="M608.19,181.35l-9.43-.49c3.66-.82,7.23-2.91,11.13-.85,0,.44-.09.89-.14,1.33Z" transform="translate(-1.11 -0.09)" fill="#9281fe"/><path d="M294,89q-53.12,0-106.25,0c-1.49,0-3-.26-4.45-.4,3.57-2.81,9.32-3.68,8.94-10,2.35,2.37,5.54-.75,7.82,1.1,2.57,2.1,3.43.41,4.25-1.58,1.3-3.19,2.53-6.41,3.79-9.62,2.59-.39,4.39-1.6,3.85-4.49-.34-1.79-1.29-3.24-3.62-3.21s-3.82.66-3.46,3.35c-2,1.52-4.47,2-6.68,3.1s-5.51.63-6.34,4c-2.2-.42-4.16.34-6.2,1-3.86,1.33-7.28,3.81-11.45,4.27-2-1.38-12.58-2.38-14.13-1.32a1.35,1.35,0,0,0-.7,1.64c.32,1,1.16,1.13,2,1.13,4,0,8,0,11.92-.08-.44,3-2.34,5.43-3.6,8.1-2.1.1-2.78,2.27-4.42,3l-18.25,0c-.05-11.79-.05-23.59-.18-35.39,0-2.62.55-3.91,3.56-3.9q67.32.23,134.62.28l.87,10.53c-5.54-2.37-9.32,4.31-14.71,2.9-.19,0-.82.67-.83,1.05,0,1,.77,1.3,1.64,1.43,2.08.31,4.5-.8,6.2.83,1.88,1.8,4,2.84,6.2,1.63,2.39-1.32,2.59-4,2.19-6.53,2.28.18,2.53,1.76,2.44,3.56-.16,3.18.92,6.14,1.48,9.18C291.34,79.55,293.89,84,294,89ZM166.21,72.11c2.47-1.11,7.27,1.55,7.23-1.86,0-3.85-4.81-1.64-7.39-1.75-2.22-.1-6.59-2-6.53,1.7C159.58,73.61,163.94,71.06,166.21,72.11ZM166.83,62c-2.48,1.1-7.25-1.53-7.25,1.77,0,4,4.73,1.66,7.29,1.87,2.28.18,6.65,1.63,6.58-1.82S169.06,63.08,166.83,62ZM224,63.31c-1.27.34-3.59-.69-3.5,1.42.07,2,2.35,1.17,3.68,1.18s3.61.73,3.54-1.32S225.33,63.6,224,63.31ZM209.86,79.17c-.32-1.36.67-3.63-1.19-3.81-2.22-.22-1.4,2.11-1.43,3.38s-.8,3.59,1.08,3.78C210.6,82.75,209.45,80.38,209.86,79.17ZM241,66c1.33-.34,3.66.69,3.73-1.27s-2.26-1.32-3.59-1.33-3.55-.63-3.47,1.5C237.77,66.64,239.86,65.67,241,66Z" transform="translate(-1.11 -0.09)" fill="#695acb"/><path d="M174.17,76.58c4.17-.46,7.59-2.94,11.45-4.27,2-.71,4-1.47,6.2-1l.39,7.38c.38,6.33-5.37,7.2-8.94,10-2.89.53-5.88.88-7.5,3.87-2.64-1.59-3.85-4.53-6.13-6.47,1.26-2.67,3.16-5.06,3.6-8.09Z" transform="translate(-1.11 -0.09)" fill="#eab47a"/><path d="M147,89.09l18.25,0c-5.63,8.66-11.16,17.4-18.2,25Q147,101.6,147,89.09Z" transform="translate(-1.11 -0.09)" fill="#826ffe"/><path d="M613.84,140.41c.37,2.58-.76,3.43-3.3,3.75-8.84,1.1-17.66,2.45-26.47,3.79-3,.46-4.21-1.35-5-3.7q-7.9-22.74-15.78-45.49c-1.38-4,1.79-4.37,4-4.5,5.32-.32,10.49-1.61,15.73-2a84.5,84.5,0,0,0,13.14-2.53c2-.49,3.49-.12,4.14,1.55C606.47,107.18,611.47,123.45,613.84,140.41Z" transform="translate(-1.11 -0.09)" fill="#826ffe"/><path d="M486.88,50.08,544,50l-.07,0q.18,11,.35,21.91c-1.31,5-4,9.54-4.83,14.72a3.17,3.17,0,0,1-2.57,2.64l-39.91,0L495.86,89l-4.95-19c3.17.39,5.5-.91,6.54-3.86.86-2.42-.88-4-2.69-5.22-2.7-1.81-4.47.92-6.68,1.57Zm27.84,15c-.06-3.2-1.61-4.85-4.86-4.84S505,61.84,505,65.08s1.6,4.83,4.84,4.84S514.67,68.28,514.72,65.08Zm13-4c-3-.39-5.25-.12-5,3.94.18,2.91,0,5.23,4.11,5,2.9-.18,5.27,0,4.95-4.09C531.59,63.11,532,60.29,527.76,61.1Z" transform="translate(-1.11 -0.09)" fill="#7669d0"/><path d="M496.92,89.32l39.91-.06c.06,6-3.07,11.21-4.27,16.92a40.14,40.14,0,0,0-.72,6.79c-2.55,2-2.55,2,1.22,5.11-1,4.16-1.43,10-4.91,11.31-2.88,1.1-6.08-4.15-9.08-6.67-6.46-5.44-12.13-11.8-19.29-16.43a23.86,23.86,0,0,0-.54-5.88C498.54,96.69,496.3,93.29,496.92,89.32Z" transform="translate(-1.11 -0.09)" fill="#bcb2fd"/><path d="M636,110.34l1,9.12c-7.84-2.49-12-9.17-16.71-15.07a52.11,52.11,0,0,1-6.73-11.78C621.08,98.47,630.42,101.92,636,110.34Z" transform="translate(-1.11 -0.09)" fill="#7669d0"/><path d="M544.23,71.9q-.16-11-.35-21.91c1.92-.38,2.52,1.28,3.44,2.32,4,4.56,8.89,6.63,15,5.25,2.09-.48,4.31-1,3.16,2.54-6.78,1.09-12.27,4.6-17.26,9.09C547,70.27,546.21,72,544.23,71.9Z" transform="translate(-1.11 -0.09)" fill="#d8d2fe"/><path d="M618.08,178.23c-1.08,2.73-3.4,1.64-5.33,1.72C613.69,176.79,616.14,178.3,618.08,178.23Z" transform="translate(-1.11 -0.09)" fill="#9281fe"/><path d="M485.28,376.9h43c6.18,0,5.86,0,5.76,6.2-.22,13.31-.08,26.63-.09,39.95,0,6.68,0,6.69-6.57,6.7-28.46,0-56.93-.09-85.4.09-4.53,0-6.12-1.18-6-5.89q.42-21,0-41.95c-.08-4.32,1.42-5.25,5.43-5.19C456,377,470.63,376.9,485.28,376.9Zm40.09,9.67v-1.13H454.23v1.13Zm-16.23,4.35c-5,0-10,0-15,0-1.26,0-2.95-.33-3.1,1.58s1.37,2.12,2.73,2.12q15,.06,29.94,0c1.17,0,2.56-.19,2.65-1.66.1-1.82-1.43-2-2.78-2.05C518.78,390.91,514,390.94,509.14,390.92ZM504,401c6.3,0,12.6,0,18.9,0,1.2,0,3.19.57,3.27-1.21.1-2.11-2-1.78-3.39-1.78q-18.66-.06-37.31,0c-1.24,0-3.16-.43-3.25,1.33-.12,2.3,2.07,1.63,3.38,1.65C491.73,401,497.87,401,504,401Zm14.16,7v0c2.16,0,4.32,0,6.48,0,.86,0,1.72-.38,1.72-1.39a1.62,1.62,0,0,0-1.63-1.58c-4.31-.09-8.63-.1-13-.08a1.53,1.53,0,0,0-1.69,1.46,1.5,1.5,0,0,0,1.6,1.55C513.84,408,516,408,518.16,408Zm3.08,7c1.46-.65,4.5,1,4.27-1.72s-3.24-1.35-5-1.41c-1.57-.06-4.55-1-4.33,1.57S519.46,414.38,521.24,415Z" transform="translate(-1.11 -0.09)" fill="#826ffe"/><path d="M225.14,367.47l10.76,0A8.91,8.91,0,0,1,237,373l-13,.2C223.65,371.15,223.15,369.06,225.14,367.47Z" transform="translate(-1.11 -0.09)" fill="#2a363c"/><path d="M199.23,354c.69,4.25,2.14,8.38,2,12.76-7.85.34-11.7-4.32-10.18-12,.62-3.16,4-.91,5-3l2,.15C198.09,352.84,198.25,353.67,199.23,354Z" transform="translate(-1.11 -0.09)" fill="#788083"/><path d="M205.09,388.75c2.74,1.68,1.55-2.89,3.62-2.28a10,10,0,0,1,.12,2.88c-.35,1.46-1.52,3-2.88,2.73C204.33,391.82,205.25,389.94,205.09,388.75Z" transform="translate(-1.11 -0.09)" fill="#9aa0a3"/><path d="M212.82,363a1.31,1.31,0,0,1,.35-2.11C214.39,361.84,213.79,362.46,212.82,363Z" transform="translate(-1.11 -0.09)" fill="#9aa0a3"/><path d="M199.23,354c-1-.36-1.14-1.19-1.19-2.09l1.9-.13C199.71,352.55,199.47,353.29,199.23,354Z" transform="translate(-1.11 -0.09)" fill="#9aa0a3"/><path d="M354,90c-1.51-1.54-3.44-.9-5.2-.91C333.17,89,317.57,89,302,89a12.25,12.25,0,0,0-.82-4.84c-2.41-6.68-3.43-13.71-6.43-20.37-1.61-3.59-1.34-9.13-1.77-13.81l57,.11c-.14,4-.22,8,3.09,11-1.33,3.27-1.12,6.16,2.08,8.31a44.53,44.53,0,0,1-.92,6.85c-.48,2-1.21,5,.87,6,3.3,1.51,3,4.33,3.88,6.84a2.19,2.19,0,0,0-2,1ZM323.52,66.11c1.19-.9,4.11,1.07,4.14-1.58,0-1.92-2.69-1.13-4.19-1.13s-4.1-.85-4.18,1.17C319.21,66.86,321.86,65.55,323.52,66.11ZM306.84,66c1.34-.34,3.61.7,3.77-1.2.18-2.19-2.15-1.38-3.42-1.4s-3.59-.77-3.75,1.11C303.26,66.73,305.61,65.61,306.84,66Z" transform="translate(-1.11 -0.09)" fill="#695acb"/><path d="M420.91,50.08l48-.08c.67,5.93,2.8,11.5,4.08,17.28,1.61,7.22,4.66,14.12,5,21.65-1.83,0-3.66.15-5.49.16L430,89.37,428.9,89c.38-3.05-.77-5.86-1.42-8.74C425.22,70.22,420.71,60.66,420.91,50.08Z" transform="translate(-1.11 -0.09)" fill="#7669d0"/><path d="M420.91,50.08c-.2,10.58,4.31,20.14,6.57,30.19.65,2.88,1.8,5.69,1.42,8.74l-47,.34-.94-.42c0-5.06-1.83-9.71-3.06-14.5-2.08-8.12-5-16-6-24.43Z" transform="translate(-1.11 -0.09)" fill="#695acb"/><path d="M371.92,50c.93,8.4,3.89,16.31,6,24.43,1.23,4.79,3.1,9.44,3.06,14.5l-6.91.25-14.07,0-1-.11c-.84-2.51-.58-5.33-3.88-6.84-2.08-1-1.35-4-.87-6a44.53,44.53,0,0,0,.92-6.85c3.79-.44,6.7-2,5.37-6.36-1.24-4-4.52-2.94-7.45-2-3.31-3-3.23-7-3.09-11Z" transform="translate(-1.11 -0.09)" fill="#7669d0"/><path d="M477.91,88.93c-.29-7.53-3.34-14.43-5-21.65-1.28-5.78-3.41-11.35-4.08-17.28l18,.08,1.2,12.32c-.22,2.94-.52,5.91,2.83,7.51l4.95,19-16,.44Z" transform="translate(-1.11 -0.09)" fill="#695acb"/><path d="M293,50c.43,4.68.16,10.22,1.77,13.81,3,6.66,4,13.69,6.43,20.37A12.25,12.25,0,0,1,302,89v.18l-8,0,0-.19c-.08-5-2.63-9.47-3.52-14.36-.56-3-1.64-6-1.48-9.18.09-1.8-.16-3.38-2.43-3.56l-.7-1.31L285,50.08Z" transform="translate(-1.11 -0.09)" fill="#7669d0"/><path d="M544.07,48.05c0,.36,0,.72,0,1.08C543.28,48.8,543.14,48.44,544.07,48.05Z" transform="translate(-1.11 -0.09)" fill="#ccc4fe"/><path d="M556.39,29.07a4.15,4.15,0,0,1,3.5,4.64c-.13,2.67-1.39,4.55-4.22,4.4s-2.95-2.52-3-4.76C552.52,30.66,553.88,29.43,556.39,29.07Z" transform="translate(-1.11 -0.09)" fill="#b87a68"/><path d="M28.13,194.51c.24-.59-.68-2.18,1.19-1.4C28.92,193.58,28.52,194,28.13,194.51Z" transform="translate(-1.11 -0.09)" fill="#fdfdfd"/><path d="M261.08,262.08c6.65,0,13.31-.07,20,0,7.2.09,11.89,4.9,11.87,11.95s-4.84,11.79-12,11.84q-20,.11-39.93,0c-7.48-.05-11.95-4.53-12-11.69s4.66-12,12.15-12.11C247.77,262,254.42,262.08,261.08,262.08Z" transform="translate(-1.11 -0.09)" fill="#d8d2fe"/><path d="M240.13,93.14c5.47,0,11,.07,16.43,0,3.17-.06,4.33,1.29,4.46,4.47.5,12.12.5,12.2-11.68,12.2-8.3,0-16.61-.09-24.9,0-4.62.07-6.86-1.78-6.35-6.56a29.13,29.13,0,0,0,0-4.48c-.23-4,1.52-5.79,5.59-5.67C229.17,93.25,234.65,93.13,240.13,93.14Z" transform="translate(-1.11 -0.09)" fill="#d8d2fe"/><path d="M303,93c5.31,0,10.64.28,15.95.11,3.27-.11,4.4,1.45,4.8,4.33,1.44,10.46.37,11.7-10.22,11.74-1.83,0-3.65.18-5.47.26a24.62,24.62,0,0,0-8.17,0c-4.78-.09-9.57-.29-14.36-.24-3.09,0-4.41-1.15-4.6-4.34-.66-11.45-.75-11.44,13.06-11.78Z" transform="translate(-1.11 -0.09)" fill="#d8d2fe"/><path d="M331.92,204c-2.15,1.46-4.68.8-7,1.26-15.14-.07-30.27-.18-45.41-.2q-34.94-.06-69.88,0a22.85,22.85,0,0,1-4.46-.25,2.32,2.32,0,0,1,0-4.58,32.78,32.78,0,0,1,5-.26H316.42c2.16,0,4.31-.13,6.47-.2l8,.43C331.64,201.3,332.32,202.49,331.92,204Z" transform="translate(-1.11 -0.09)" fill="#d8d2fe"/><path d="M327,180.79c5.48.87,5.94,1.71,3,5.38l-14.08.16q-38.7-.12-77.4-.22c-9.48,0-19,.14-28.45.21l-5.09-.1c-2.32-3.15-1.83-4.76,1.66-5.19a35.39,35.39,0,0,1,4,0l107.3-.15Z" transform="translate(-1.11 -0.09)" fill="#d8d2fe"/><path d="M327,180.79l-9.08.05c-1-10-4.32-19.38-7-28.94,0-1,.14-2-.9-2.58q-5.07-19.95-10.15-39.91a24.83,24.83,0,0,1,8.16,0l10.89,40.48a2.14,2.14,0,0,0,1,2.2c-.85,4,1.69,7.31,2.33,11C323.32,169.1,325.38,174.91,327,180.79Z" transform="translate(-1.11 -0.09)" fill="#9281fe"/><path d="M243.79,223.88H206.41c-1.85,0-3.51-.82-3.78-2.59-.31-1.95,1.4-2.89,3.1-3.22a33.92,33.92,0,0,1,6.39-.84q32.9-.09,65.8,0a11.36,11.36,0,0,1,2.48.07c2.28.52,5.14,1.17,4.93,3.93-.19,2.52-2.86,2.71-5.15,2.71C268.05,223.86,255.92,223.88,243.79,223.88Z" transform="translate(-1.11 -0.09)" fill="#ccc4fe"/><path d="M315.91,186.33l14.08-.16c-1.67,4.78,2.3,9.21.88,14l-8-.43C323,194,322.28,188.68,315.91,186.33Z" transform="translate(-1.11 -0.09)" fill="#9281fe"/><path d="M295.72,150.7a39.93,39.93,0,0,1-24.18,1.21c-.73-.17-1.31-.62-1-1.32.21-.52,1-1.2,1.43-1.16,3.33.3,6-1.1,8.62-2.89,1.06-.72,3.34-.82,3.75.08C286.53,151.43,291.17,149.27,295.72,150.7Z" transform="translate(-1.11 -0.09)" fill="#ccc4fe"/><path d="M208.26,111.09c-2.86.33-4.26-.54-4.19-3.5.05-2.77.76-4.38,3.92-4.38s3.93,1.54,4,4.34S210.82,111.56,208.26,111.09Z" transform="translate(-1.11 -0.09)" fill="#ccc4fe"/><path d="M207.86,154c-2.56.2-3.74-1-3.77-3.82s1.53-4,4-3.95c2.71,0,4.59,1.67,4.53,4.3S210.54,154.1,207.86,154Z" transform="translate(-1.11 -0.09)" fill="#ccc4fe"/><path d="M303,93l-9,.09c0-1.29,0-2.57,0-3.85l8,0C302.31,90.44,302.65,91.7,303,93Z" transform="translate(-1.11 -0.09)" fill="#9281fe"/><path d="M241.31,152c-1.26-.41-3.61.81-3.64-1.27,0-1.86,2.26-1.47,3.65-1.42s4-.71,3.84,1.64C245.05,152.74,242.67,151.67,241.31,152Z" transform="translate(-1.11 -0.09)" fill="#d8d2fe"/><path d="M257.07,152.09c-1.4-.39-3.44.54-3.52-1.16-.1-2.05,2.06-1.56,3.39-1.6s3.61-.34,3.53,1.49C260.39,152.92,258,151.38,257.07,152.09Z" transform="translate(-1.11 -0.09)" fill="#d8d2fe"/><path d="M224.44,152.12c-1.56-.49-3.86.66-3.86-1.4,0-1.75,2.22-1.39,3.63-1.4,1.26,0,3.22-.21,3.29,1.26C227.63,153.08,225.17,151.18,224.44,152.12Z" transform="translate(-1.11 -0.09)" fill="#d8d2fe"/><path d="M209.93,121.47c-.2,1.21.48,3.11-1.3,3.26-1.94.16-1.5-1.77-1.5-3s-.55-3.09,1.24-3.24C210.35,118.36,209.72,120.3,209.93,121.47Z" transform="translate(-1.11 -0.09)" fill="#ccc4fe"/><path d="M310,149.32c1,.61.93,1.61.9,2.58H303.5C305.36,149.19,307.9,150,310,149.32Z" transform="translate(-1.11 -0.09)" fill="#d8d2fe"/><path d="M205,186.22l5.09.1C208.31,188.75,206.61,188.86,205,186.22Z" transform="translate(-1.11 -0.09)" fill="#9281fe"/><path d="M374,89.18l6.91-.25.94.42q4.53,17.28,9.07,34.56c-7,.21-7,.21-7,7.49,0,13.14,0,26.28,0,39.41,0,1.75.66,3.71-1,5.18-1.24-6.31-3.77-12.23-5.64-18.35-.55-1.77-.94-3.59-3.33-3.64q-.13-9-.26-17.92Q373.87,112.64,374,89.18Z" transform="translate(-1.11 -0.09)" fill="#bcb2fd"/><path d="M373.85,282.84c8.31,0,16.63.2,24.94.05,4.54-.08,6.16,1.84,6.16,6.28,0,10.75.13,10.74-10.6,10.75l-20.46.05c-3.52-1.87-7.31-.62-11-1a6.19,6.19,0,0,1-1.85-5,4.09,4.09,0,0,0,0-5.07c-.22-2.86,1.32-4.49,3.82-5.45,2.06.45,4.13.95,6.08-.39Z" transform="translate(-1.11 -0.09)" fill="#d8d2fe"/><path d="M374,89.18q-.18,23.46-.34,46.9c-2.37-.85-3-3.32-3.47-5.08-3.62-13.4-6.89-26.89-10.26-40.36a6.75,6.75,0,0,1,0-1.49Z" transform="translate(-1.11 -0.09)" fill="#9281fe"/><path d="M356.52,154c-2.55.42-4.28-.86-4.26-3.38s1.15-4.54,4.21-4.45c2.78.09,4.23,1.48,4.29,4.32S359.16,154.17,356.52,154Z" transform="translate(-1.11 -0.09)" fill="#ccc4fe"/><path d="M356.36,111.1c-2.53.32-3.46-.85-3.49-3.42,0-2.81,1-3.82,3.82-3.73,2.63.08,4.06.91,4,3.75S358.9,111.32,356.36,111.1Z" transform="translate(-1.11 -0.09)" fill="#d8d2fe"/><path d="M340.23,152.12c-1.49-.52-3.82.69-3.74-1.46.07-1.71,2.29-1.33,3.7-1.34s3.23-.17,3.24,1.32C343.45,153,341.07,151.27,340.23,152.12Z" transform="translate(-1.11 -0.09)" fill="#d8d2fe"/><path d="M354,90h3c-.49,2.23,1.18,6.41-1.23,6.36C352.17,96.3,354.69,92.21,354,90Z" transform="translate(-1.11 -0.09)" fill="#9281fe"/><path d="M362.92,299c3.66.35,7.45-.9,11,1l-.12,1-7.44-.08C364.85,300.9,363.24,301.11,362.92,299Z" transform="translate(-1.11 -0.09)" fill="#9281fe"/><path d="M320,152.09a2.14,2.14,0,0,1-1-2.2c2.87.15,5.83-.59,9.26.72C325.37,153,322.47,151.47,320,152.09Z" transform="translate(-1.11 -0.09)" fill="#d8d2fe"/><path d="M371,283.05c-2,1.34-4,.84-6.08.39C366.77,281,368.84,281.54,371,283.05Z" transform="translate(-1.11 -0.09)" fill="#9281fe"/><path d="M361.07,288.89a4.09,4.09,0,0,1,0,5.07Q358.63,291.42,361.07,288.89Z" transform="translate(-1.11 -0.09)" fill="#9281fe"/><path d="M382.93,176c1.62-1.47.95-3.43,1-5.18.05-13.13,0-26.27,0-39.41,0-7.28,0-7.28,7-7.49h47.91c9.07-.1,18.17.81,27.19-.82.16,2.25-1.24,4-1.8,6.07-.29,1.05-1.32,2.22-.5,3.22.94,1.15,2.5.83,3.7.41,3.7-1.27,7.34-2.76,11-4.1a3.2,3.2,0,0,0,2.4-3.72c6-2.19,12.26-.25,18.34-1.16l18.61,23.34c.83,9-1.42,17.89-.86,26.88,1.63,20.95.53,41.95.89,62.93-1,.67-1,1.34,0,2v5c0,3.15-.16,6.3,0,9.44.19,3.5-1.4,4.62-4.75,4.59-12.42-.09-24.84,0-37.26,0-16-.11-32-.34-48,.88-7.59-2-15.31-.45-23-.89-6.15,0-12.3-.14-18.44,0-3.05.07-3.69-1.38-3.47-4,2-23.53.41-47.1.86-70.65A51.61,51.61,0,0,0,382.93,176Zm75.23,37.12c.89.14,1.65.53,1.64,1.53-.06,11-.12,21.92-.31,32.89,0,1.41-1.21,2.94.41,4a2.84,2.84,0,0,0,2.34,0c1.94-.84.78-2.42.85-3.83.83-17.94-2.61-36,1.72-53.85a4.27,4.27,0,0,0,0-2.94c-2.89-4.39-1.59-9.28-1.94-14l.06-37.44c0-1.16,0-2.33,0-3.49a1.84,1.84,0,0,0-2.34-1.9c-1.41.2-1,1.17-1,2.22.19,10.64.28,21.28.38,31.92,0,1.3.28,2.7-1,3.68-.36-.75-.74-1.49-1.07-2.25-8.28-19.3-22.95-30.77-43.25-35.35-2.64-.6-5.41-.26-7.63-2.84-1.23-1.42-4.25-1.12-6.12,0-1.62,1-1.14,3.13-.79,4.63,1,4.14,4.18,3.25,6.71,2.15,1.73-.74,3.23-1.55,5.15-1.16,4.7,1,9.4,1.83,13.82,3.89,16.55,7.73,28,19.7,32.49,37.86,1.21,4.85-.58,9.48,0,13.8a49.17,49.17,0,0,1-1.43,19.07,61.55,61.55,0,0,1-33.87,34.13C434.3,247.45,451.31,231.19,458.16,213.11Zm-54.47,41.2c3.94-2.45,8.35-3.47,12.8-4.4a43.71,43.71,0,0,0,4.31-1.19,1.31,1.31,0,0,0,.94-1.53,1.14,1.14,0,0,0-1.43-1,26.87,26.87,0,0,1-16.82,0c-3-1-3.57,1.87-3.62,4.48S401.07,254.21,403.69,254.31Z" transform="translate(-1.11 -0.09)" fill="#d8d2fe"/><path d="M516.76,286.83a55,55,0,0,1,1.41,5.76c.46,3.26.25,6.21-3.79,7.36-3.66,1-6.68,1.2-8.66-2.9-1.13-2.33-1.9-5.44-6.12-2.89-1.91,1.15-5.8-.69-6.76-2.45-1.08-2-3.47-4.21-1.92-7.52,2.94-6.27,4.75-7.34,11.7-5.62.68.17,1.55-.4,2.33-.63A15.81,15.81,0,0,0,516.76,286.83ZM495.94,286c.15,1.8,1.06,2.8,2.83,2.83a2.67,2.67,0,0,0,3-3.05A2.57,2.57,0,0,0,499,283C497,283,496,284.09,495.94,286Zm15.46,5a2.35,2.35,0,0,0-2.36,2.16,2.22,2.22,0,0,0,2.34,2.6,2.15,2.15,0,0,0,2.33-2.11C513.85,292.07,512.89,291.27,511.4,291Z" transform="translate(-1.11 -0.09)" fill="#d8d2fe"/><path d="M516.76,286.83A15.81,15.81,0,0,1,505,277.94c.27-7.2,3.22-11.13,9.54-12.67,2.6-.64,8.76,3.19,9.33,6a5.5,5.5,0,0,0,2.93,3.71l0,2c-.15.08-.35.12-.43.24C523.84,281.06,521.87,285.5,516.76,286.83Zm-2-6.86c3.48.07,4.76-2,4.81-4.37,0-2.7-2.29-4.2-4.62-4.19a4.25,4.25,0,0,0-4,4.27A3.86,3.86,0,0,0,514.79,280Z" transform="translate(-1.11 -0.09)" fill="#fcfcfc"/><path d="M466.06,123.09c-9,1.63-18.12.72-27.19.82q-4.46-17.26-8.9-34.54l42.45-.28c1.83,0,3.66-.11,5.49-.16l1.93.47c-.48,3.63,1,7.06,1.05,10.64-4.13,4.52-5.6,10.37-7.93,15.79-2-.89-3.35-.28-4.23,1.71S467,121.24,466.06,123.09Z" transform="translate(-1.11 -0.09)" fill="#bcb2fd"/><path d="M480.89,100c0-3.58-1.53-7-1.05-10.64l16-.44,1.06.35c-.62,4,1.62,7.38,2.32,11.1a23.86,23.86,0,0,1,.54,5.88Z" transform="translate(-1.11 -0.09)" fill="#b2a7fd"/><path d="M466.06,123.09c.89-1.85,1.84-3.68,2.67-5.55s2.23-2.6,4.23-1.71c-.07,2,.9,3,2.83,3.2,2.39.31,4.76.73,7.14,1.1-.4,1.73-4.09,2.07-2.05,4.84a3.2,3.2,0,0,1-2.4,3.72c-3.68,1.34-7.32,2.83-11,4.1-1.2.42-2.76.74-3.7-.41-.82-1,.21-2.17.5-3.22C464.82,127.12,466.22,125.34,466.06,123.09Z" transform="translate(-1.11 -0.09)" fill="#788083"/><path d="M480.88,125c-2-2.77,1.65-3.11,2.05-4.84,3.79,0,7.59.13,11.38,0,2.78-.1,4.43.93,4.91,3.69C493.14,124.72,486.88,122.78,480.88,125Z" transform="translate(-1.11 -0.09)" fill="#b2a7fd"/><path d="M517.88,239c-1-.65-1-1.32,0-2C518.88,237.61,518.9,238.28,517.88,239Z" transform="translate(-1.11 -0.09)" fill="#bcb2fd"/><path d="M192.21,78.64l-.39-7.38c.83-3.34,4.1-2.9,6.34-4s4.68-1.58,6.68-3.11c6.29-2.41,3.15,2.17,3.23,4.36-1.26,3.21-2.49,6.43-3.79,9.62-.82,2-1.68,3.68-4.25,1.58C197.75,77.89,194.56,81,192.21,78.64Z" transform="translate(-1.11 -0.09)" fill="#b2a7fd"/><path d="M285.84,60.61l.7,1.31c.39,2.57.19,5.21-2.2,6.53-2.2,1.21-4.32.17-6.2-1.63-1.7-1.63-4.12-.52-6.2-.83-.87-.13-1.66-.43-1.64-1.43,0-.38.64-1.1.83-1.05C276.52,64.92,280.3,58.24,285.84,60.61Z" transform="translate(-1.11 -0.09)" fill="#bcb2fd"/><path d="M166.21,72.11c-2.27-1-6.63,1.5-6.69-1.91-.06-3.66,4.31-1.8,6.53-1.7,2.58.11,7.36-2.1,7.39,1.75C173.48,73.66,168.68,71,166.21,72.11Z" transform="translate(-1.11 -0.09)" fill="#ccc4fe"/><path d="M166.83,62c2.23,1.08,6.56-1.51,6.62,1.82s-4.3,2-6.58,1.82c-2.56-.21-7.3,2.14-7.29-1.87C159.58,60.47,164.35,63.1,166.83,62Z" transform="translate(-1.11 -0.09)" fill="#ccc4fe"/><path d="M174.17,76.58,173.24,78c-4,0-8,.07-11.92.07-.82,0-1.66-.15-2-1.13a1.35,1.35,0,0,1,.7-1.64C161.59,74.2,172.19,75.2,174.17,76.58Z" transform="translate(-1.11 -0.09)" fill="#ccc4fe"/><path d="M208.07,68.54c-.08-2.19,3.06-6.77-3.23-4.36-.36-2.68,1.09-3.32,3.46-3.34s3.28,1.42,3.62,3.21C212.46,66.94,210.66,68.15,208.07,68.54Z" transform="translate(-1.11 -0.09)" fill="#ccc4fe"/><path d="M224,63.31c1.36.29,3.65-.62,3.72,1.28s-2.24,1.32-3.54,1.32-3.61.78-3.68-1.18C220.38,62.62,222.7,63.65,224,63.31Z" transform="translate(-1.11 -0.09)" fill="#ccc4fe"/><path d="M209.86,79.17c-.41,1.21.74,3.58-1.54,3.35-1.88-.19-1.1-2.45-1.08-3.78s-.79-3.6,1.43-3.38C210.53,75.54,209.54,77.81,209.86,79.17Z" transform="translate(-1.11 -0.09)" fill="#ccc4fe"/><path d="M241,66c-1.18-.33-3.27.64-3.33-1.1-.08-2.13,2.15-1.52,3.47-1.5s3.66-.72,3.59,1.33S242.37,65.66,241,66Z" transform="translate(-1.11 -0.09)" fill="#ccc4fe"/><path d="M514.72,65.08c-.05,3.2-1.61,4.85-4.86,4.84S505,68.31,505,65.08s1.6-4.84,4.84-4.84S514.66,61.88,514.72,65.08Z" transform="translate(-1.11 -0.09)" fill="#535c62"/><path d="M527.76,61.1c4.22-.81,3.83,2,4,4.83.32,4.08-2,3.91-4.95,4.09-4.07.25-3.93-2.07-4.11-5C522.51,61,524.75,60.71,527.76,61.1Z" transform="translate(-1.11 -0.09)" fill="#535c62"/><path d="M490.91,69.91c-3.35-1.6-3.05-4.57-2.83-7.51,2.21-.65,4-3.38,6.68-1.57,1.81,1.21,3.55,2.8,2.69,5.22C496.41,69,494.08,70.3,490.91,69.91Z" transform="translate(-1.11 -0.09)" fill="#535c62"/><path d="M525.37,386.57H454.24v-1.13h71.14Z" transform="translate(-1.11 -0.09)" fill="#fcfcfc"/><path d="M509.14,390.93c4.82,0,9.64,0,14.47,0,1.35,0,2.88.23,2.78,2.05-.09,1.47-1.48,1.66-2.65,1.66q-15,0-29.94,0c-1.36,0-2.88-.31-2.73-2.12s1.84-1.57,3.1-1.58C499.16,390.9,504.15,390.92,509.14,390.93Z" transform="translate(-1.11 -0.09)" fill="#d8d2fe"/><path d="M504,401c-6.13,0-12.27,0-18.4,0-1.31,0-3.5.65-3.38-1.65.09-1.76,2-1.33,3.25-1.33q18.66,0,37.31,0c1.39,0,3.49-.33,3.39,1.78-.08,1.78-2.07,1.19-3.27,1.21C516.6,401,510.3,401,504,401Z" transform="translate(-1.11 -0.09)" fill="#d8d2fe"/><path d="M518.16,408c-2.16,0-4.32,0-6.47,0a1.5,1.5,0,0,1-1.6-1.55,1.53,1.53,0,0,1,1.69-1.46c4.32,0,8.64,0,13,.08a1.62,1.62,0,0,1,1.63,1.58c0,1-.86,1.36-1.72,1.39-2.16,0-4.32,0-6.48,0Z" transform="translate(-1.11 -0.09)" fill="#d8d2fe"/><path d="M521.24,415c-1.78-.6-4.84,1.08-5.07-1.56s2.76-1.63,4.33-1.57c1.77.06,4.79-1.26,5,1.41S522.7,414.33,521.24,415Z" transform="translate(-1.11 -0.09)" fill="#ccc4fe"/><path d="M353,61.08c2.93-1,6.21-2.06,7.45,2,1.33,4.33-1.58,5.92-5.37,6.36C351.91,67.24,351.7,64.35,353,61.08Z" transform="translate(-1.11 -0.09)" fill="#ccc4fe"/><path d="M323.52,66.11c-1.66-.56-4.31.75-4.23-1.54.08-2,2.69-1.17,4.18-1.17s4.21-.79,4.19,1.13C327.63,67.18,324.71,65.21,323.52,66.11Z" transform="translate(-1.11 -0.09)" fill="#ccc4fe"/><path d="M306.84,66c-1.23-.39-3.58.73-3.4-1.49.16-1.88,2.42-1.13,3.75-1.11s3.6-.79,3.42,1.4C310.45,66.7,308.18,65.66,306.84,66Z" transform="translate(-1.11 -0.09)" fill="#ccc4fe"/><path d="M430,89.37q4.45,17.26,8.9,34.54H391q-4.53-17.28-9.07-34.56l47-.34Z" transform="translate(-1.11 -0.09)" fill="#b2a7fd"/><path d="M456.78,211.79a49.17,49.17,0,0,0,1.43-19.07c-.59-4.32,1.2-8.95,0-13.8-4.54-18.16-15.94-30.13-32.49-37.86-4.42-2.06-9.12-2.92-13.82-3.89-1.92-.39-3.42.42-5.15,1.16-2.53,1.1-5.74,2-6.71-2.15-.35-1.5-.83-3.67.79-4.63,1.87-1.11,4.89-1.41,6.12,0,2.22,2.58,5,2.24,7.63,2.84,20.3,4.58,35,16,43.25,35.35.33.76.71,1.5,1.07,2.25.54,2.28,1,4.62,3.94,5,.35,4.69-.95,9.58,1.94,14a4.27,4.27,0,0,1,0,2.94c-4.33,17.83-.89,35.91-1.72,53.85-.07,1.41,1.09,3-.85,3.83a2.84,2.84,0,0,1-2.34,0c-1.62-1.09-.44-2.62-.41-4,.19-11,.25-21.93.31-32.89,0-1-.75-1.39-1.64-1.53Z" transform="translate(-1.11 -0.09)" fill="#b2a7fd"/><path d="M456.78,211.79l1.38,1.32c-6.85,18.08-23.86,34.34-35.25,32.81A61.55,61.55,0,0,0,456.78,211.79Z" transform="translate(-1.11 -0.09)" fill="#9281fe"/><path d="M462.83,177c-2.94-.39-3.4-2.73-3.94-5,1.26-1,1-2.38,1-3.68-.1-10.64-.19-21.28-.38-31.92,0-1.05-.37-2,1-2.22a1.84,1.84,0,0,1,2.34,1.9c.06,1.16,0,2.33,0,3.49Z" transform="translate(-1.11 -0.09)" fill="#bcb2fd"/><path d="M403.69,254.31c-2.62-.1-3.88-1-3.82-3.68s.62-5.49,3.62-4.48a26.87,26.87,0,0,0,16.82,0,1.14,1.14,0,0,1,1.43,1,1.31,1.31,0,0,1-.94,1.53,43.71,43.71,0,0,1-4.31,1.19C412,250.84,407.63,251.86,403.69,254.31Z" transform="translate(-1.11 -0.09)" fill="#b2a7fd"/><path d="M495.94,286c.05-1.93,1-3,3.05-3a2.57,2.57,0,0,1,2.8,2.77,2.67,2.67,0,0,1-3,3.05C497,288.82,496.09,287.82,495.94,286Z" transform="translate(-1.11 -0.09)" fill="#bcb2fd"/><path d="M511.4,291c1.49.24,2.45,1,2.31,2.65a2.15,2.15,0,0,1-2.33,2.11,2.22,2.22,0,0,1-2.34-2.6A2.35,2.35,0,0,1,511.4,291Z" transform="translate(-1.11 -0.09)" fill="#bcb2fd"/><path d="M514.79,280a3.86,3.86,0,0,1-3.83-4.29,4.25,4.25,0,0,1,4-4.27c2.33,0,4.67,1.49,4.62,4.19C519.55,278,518.27,280,514.79,280Z" transform="translate(-1.11 -0.09)" fill="#bcb2fd"/></svg>