<svg xmlns="http://www.w3.org/2000/svg" width="40vw" viewBox="0 0 553.8 190"><path d="M555.85,190q0-93.21.08-186.41c0-3-.59-3.65-3.58-3.59C541.19.23,530,.09,518.87.09c-1.71,1-3.58.47-5.36.48-12.8.08-25.61.35-38.3,2-31.53,4.15-62.31,11-90.57,26.38C362,41.29,344.11,58,335.59,83.1a135.42,135.42,0,0,1-5,13c-6.82,14.87-17.27,25.12-34.34,27-7.23.79-14.3-.42-21.32-1.75-18.84-3.54-36.95-10-55.68-14-23.74-5-47.48-6.22-71.22,0-13.51,3.52-25.66,10.06-37.77,16.77-25.82,14.29-50.88,29.72-73.3,49.08-8.14,7-17.62,11.23-28,13.56-1.3.29-2.63.47-3.91.85s-2.62.92-2.85,2.38Z" transform="translate(-2.13 0)" fill="#cbc6f6" opacity=".5"/></svg>