<svg xmlns="http://www.w3.org/2000/svg" width="48vw" viewBox="0 0 716.37 203.49"><path d="M520.88.58h18C546.4,1.68,554,1.42,561.61,2c13.19,1,26,3.82,38.58,7.5a54.81,54.81,0,0,0,15.68,2.42c22.27-.08,44.56.37,66.82-.19,12.79-.32,25.56-.91,38.36-.82,2.63,0,5.37-.32,7.59,1.66q0,93.42.1,186.86c0,3.73-.85,4.58-4.6,4.57q-355.83-.15-711.68-.09c-.23-1.81,1.23-2.38,2.41-2.64,12.5-2.8,17.63-12.73,22.44-22.94,12.19-25.84,23.83-52,38.31-76.65C83.11,88.86,91.1,76.47,102.8,66.89c14.39-11.78,31.11-13.41,48.62-11.45,27.15,3,53.74,9.53,80.84,12.93,20.63,2.58,41.34,4.37,62,6.45,10.25,1,20.51,2.07,30.84,2.06,11.26,0,21.7-2.53,31.27-8.7,21-13.52,41.3-28,63.13-40.19,27.09-15.1,55.8-24.88,87.05-26.54C511.33,1.2,516.17,1.8,520.88.58Z" transform="translate(-12.44 -0.48)" fill="#e2dfff" opacity=".5"/></svg>